<svg width="72" height="72" fill="none" xmlns="http://www.w3.org/2000/svg"><mask id="a" style="mask-type:luminance" maskUnits="userSpaceOnUse" x="0" y="0" width="72" height="72"><path d="M0 0h72v72H0V0Z" fill="#fff"/></mask><g mask="url(#a)" stroke="#004671" stroke-width="3"><path d="M56.719 3.084A54.376 54.376 0 0 1 70.59 1.408a54.37 54.37 0 0 1-1.676 13.871M28.9 55.03h0l-8.3 2.336-5.967-5.966 2.336-8.3v-.002M14.633 63.333c-1.648 1.647-13.227 7.26-13.227 7.26s5.614-11.578 7.26-13.226a4.218 4.218 0 0 1 5.967 0 4.218 4.218 0 0 1 0 5.966ZM38.694 33.306c-3.29-3.291-3.29-8.642 0-11.933 3.291-3.29 8.642-3.29 11.933 0 3.29 3.291 3.29 8.642 0 11.933-3.291 3.29-8.642 3.29-11.933 0Z" stroke-miterlimit="10" stroke-linecap="round" stroke-linejoin="round"/><path d="M68.914 15.28h-.002a12.611 12.611 0 0 1-8.495-3.7 12.61 12.61 0 0 1-3.698-8.494v-.002M31.883 40.116l-8.95 8.95M42.86 51.709c2.783 4.836 2.107 11.12-2.028 15.255l-8.95-8.95M13.985 40.116l-8.95-8.95c4.135-4.133 10.418-4.81 15.255-2.028" stroke-miterlimit="10" stroke-linecap="round" stroke-linejoin="round"/><path d="M62.824 29.594a.093.093 0 0 0 0-.133.093.093 0 0 0-.133 0 .093.093 0 0 0 0 .133.093.093 0 0 0 .133 0Z" fill="#004671"/><path d="M68.914 15.278a55.377 55.377 0 0 1-3.031 8.743M59.565 34.994c-5.151 7.163-11.328 12.732-16.747 16.657-4.518 3.275-8.51 5.406-10.935 6.364l-17.899-17.9c.96-2.43 3.091-6.421 6.364-10.937 6.999-9.66 19.219-21.725 36.372-26.093" stroke-miterlimit="10" stroke-linecap="round" stroke-linejoin="round"/></g></svg>