<svg width="83" height="72" viewBox="0 0 83 72" fill="none" xmlns="http://www.w3.org/2000/svg">
<g id="Group">
<path id="Vector" d="M41.5 19.3671C39.5847 19.3671 37.7125 18.7992 36.1201 17.7352C34.5276 16.6711 33.2865 15.1588 32.5535 13.3893C31.8206 11.6199 31.6288 9.67283 32.0025 7.7944C32.3761 5.91597 33.2984 4.19053 34.6527 2.83626C36.0069 1.48199 37.7324 0.559714 39.6108 0.186071C41.4892 -0.187571 43.4363 0.00419573 45.2057 0.737122C46.9752 1.47005 48.4875 2.71122 49.5516 4.30367C50.6156 5.89612 51.1835 7.76834 51.1835 9.68357C51.1806 12.2509 50.1594 14.7123 48.3441 16.5277C46.5287 18.343 44.0673 19.3642 41.5 19.3671ZM41.5 2.76674C40.132 2.76674 38.7947 3.1724 37.6572 3.93244C36.5197 4.69247 35.6332 5.77273 35.1097 7.03661C34.5861 8.3005 34.4492 9.69124 34.716 11.033C34.9829 12.3747 35.6417 13.6072 36.609 14.5745C37.5764 15.5418 38.8088 16.2006 40.1506 16.4675C41.4923 16.7344 42.883 16.5974 44.1469 16.0739C45.4108 15.5504 46.4911 14.6638 47.2511 13.5264C48.0111 12.3889 48.4168 11.0516 48.4168 9.68357C48.4146 7.84979 47.6852 6.09174 46.3885 4.79506C45.0918 3.49838 43.3338 2.76893 41.5 2.76674Z" fill="#004671"/>
<path id="Vector_2" d="M52.5614 34.584H49.7946V27.6671C49.7965 27.304 49.9411 26.9562 50.1972 26.6988L68.6721 8.10218C68.9851 7.78703 69.1608 7.36085 69.1608 6.91663C69.1608 6.47241 68.9851 6.04623 68.6721 5.73109C68.3776 5.43739 67.9837 5.2649 67.5682 5.24774C67.1527 5.23057 66.7459 5.36999 66.4282 5.6384L56.9577 13.6854C52.6402 17.3532 47.1595 19.367 41.4944 19.367C35.8293 19.367 30.3487 17.3532 26.0312 13.6854L16.5606 5.6384C16.2316 5.35633 15.8056 5.21353 15.373 5.24027C14.9404 5.26701 14.5352 5.46119 14.2434 5.78163C13.9515 6.10208 13.796 6.52359 13.8097 6.9568C13.8234 7.39 14.0053 7.80083 14.3168 8.10218L32.7917 26.6988C33.0478 26.9562 33.1923 27.304 33.1942 27.6671V34.584H30.4275V28.2385L12.3552 10.0541C11.5457 9.24539 11.0801 8.1551 11.0557 7.01111C11.0313 5.86712 11.45 4.75797 12.2243 3.91547C12.9985 3.07297 14.0685 2.56232 15.2104 2.49026C16.3524 2.41819 17.4781 2.79028 18.3521 3.52877L27.8226 11.5772C31.6399 14.82 36.4857 16.6004 41.4944 16.6004C46.5032 16.6004 51.3489 14.82 55.1662 11.5772L64.6368 3.52877C65.5108 2.79028 66.6365 2.41819 67.7784 2.49026C68.9204 2.56232 69.9903 3.07297 70.7646 3.91547C71.5389 4.75797 71.9576 5.86712 71.9332 7.01111C71.9088 8.1551 71.4432 9.24539 70.6337 10.0541L52.5614 28.2385V34.584ZM41.4944 71.9349C30.1813 71.9349 27.0064 69.0879 26.6827 68.7628C26.4233 68.5034 26.2775 68.1516 26.2774 67.7848V62.2513C26.2803 59.684 27.3015 57.2226 29.1169 55.4072C30.9323 53.5918 33.3936 52.5707 35.961 52.5677H47.0279C49.5952 52.5707 52.0566 53.5918 53.872 55.4072C55.6874 57.2226 56.7085 59.684 56.7115 62.2513V67.7848C56.7114 68.1516 56.5656 68.5034 56.3061 68.7628C55.9824 69.0879 52.8076 71.9349 41.4944 71.9349ZM29.0441 67.0723C30.119 67.6893 33.5235 69.1681 41.4944 69.1681C49.4294 69.1681 52.838 67.7018 53.9447 67.0654V62.2513C53.9425 60.4175 53.2131 58.6595 51.9164 57.3628C50.6197 56.0661 48.8617 55.3367 47.0279 55.3345H35.961C34.1272 55.3367 32.3691 56.0661 31.0725 57.3628C29.7758 58.6595 29.0463 60.4175 29.0441 62.2513V67.0723Z" fill="#004671"/>
<path id="Vector_3" d="M41.5 55.3349C39.5847 55.3349 37.7125 54.767 36.1201 53.7029C34.5276 52.6389 33.2865 51.1265 32.5535 49.3571C31.8206 47.5876 31.6288 45.6406 32.0025 43.7622C32.3761 41.8837 33.2984 40.1583 34.6527 38.804C36.0069 37.4498 37.7324 36.5275 39.6108 36.1538C41.4892 35.7802 43.4363 35.972 45.2057 36.7049C46.9752 37.4378 48.4875 38.679 49.5516 40.2714C50.6156 41.8639 51.1835 43.7361 51.1835 45.6513C51.1806 48.2187 50.1594 50.68 48.3441 52.4954C46.5287 54.3108 44.0673 55.332 41.5 55.3349ZM41.5 38.7345C40.132 38.7345 38.7947 39.1402 37.6572 39.9002C36.5197 40.6602 35.6332 41.7405 35.1097 43.0044C34.5861 44.2683 34.4492 45.659 34.716 47.0008C34.9829 48.3425 35.6417 49.5749 36.609 50.5423C37.5764 51.5096 38.8088 52.1684 40.1506 52.4353C41.4923 52.7022 42.883 52.5652 44.1469 52.0417C45.4108 51.5181 46.4911 50.6316 47.2511 49.4941C48.0111 48.3567 48.4168 47.0194 48.4168 45.6513C48.4146 43.8176 47.6852 42.0595 46.3885 40.7628C45.0918 39.4662 43.3338 38.7367 41.5 38.7345ZM67.7839 67.7852C64.9149 67.8185 62.049 67.5837 59.2237 67.0838L59.7438 64.3669C62.3979 64.8326 65.0895 65.0507 67.7839 65.0185C75.7189 65.0185 79.1275 63.5521 80.2342 62.9158V58.1016C80.232 56.2679 79.5026 54.5098 78.2059 53.2131C76.9092 51.9164 75.1512 51.187 73.3174 51.1848H62.2505C61.1089 51.184 59.9848 51.4661 58.9789 52.0058C57.973 52.5456 57.1165 53.3263 56.486 54.278L54.1813 52.7466C55.0638 51.4145 56.2628 50.3219 57.671 49.5665C59.0791 48.8111 60.6525 48.4166 62.2505 48.4181H73.3174C75.8847 48.421 78.3461 49.4422 80.1615 51.2576C81.9769 53.0729 82.998 55.5343 83.001 58.1016V63.6351C83.0009 64.002 82.8551 64.3538 82.5956 64.6132C82.2719 64.9382 79.0971 67.7852 67.7839 67.7852Z" fill="#004671"/>
<path id="Vector_4" d="M67.785 51.1845C65.8697 51.1845 63.9975 50.6166 62.4051 49.5525C60.8126 48.4885 59.5715 46.9761 58.8385 45.2067C58.1056 43.4373 57.9138 41.4902 58.2875 39.6118C58.6611 37.7334 59.5834 36.0079 60.9377 34.6536C62.2919 33.2994 64.0174 32.3771 65.8958 32.0035C67.7742 31.6298 69.7213 31.8216 71.4907 32.5545C73.2602 33.2874 74.7725 34.5286 75.8366 36.1211C76.9006 37.7135 77.4685 39.5857 77.4685 41.501C77.4656 44.0683 76.4444 46.5297 74.6291 48.345C72.8137 50.1604 70.3523 51.1816 67.785 51.1845ZM67.785 34.5841C66.417 34.5841 65.0797 34.9898 63.9422 35.7498C62.8047 36.5098 61.9182 37.5901 61.3947 38.854C60.8711 40.1179 60.7342 41.5086 61.001 42.8504C61.2679 44.1921 61.9267 45.4246 62.894 46.3919C63.8614 47.3592 65.0938 48.018 66.4356 48.2849C67.7773 48.5518 69.168 48.4148 70.4319 47.8913C71.6958 47.3678 72.7761 46.4812 73.5361 45.3437C74.2961 44.2063 74.7018 42.869 74.7018 41.501C74.6996 39.6672 73.9702 37.9091 72.6735 36.6124C71.3768 35.3158 69.6188 34.5863 67.785 34.5841ZM15.217 67.7849C3.90386 67.7849 0.729034 64.938 0.405326 64.6129C0.145877 64.3535 7.83503e-05 64.0017 0 63.6348V58.1014C0.00292909 55.534 1.0241 53.0727 2.83949 51.2573C4.65487 49.4419 7.11623 48.4207 9.68357 48.4178H20.7505C22.3485 48.4163 23.9219 48.8108 25.33 49.5662C26.7382 50.3216 27.9371 51.4142 28.8197 52.7463L26.515 54.2777C25.8845 53.326 25.028 52.5453 24.0221 52.0056C23.0161 51.4658 21.8921 51.1837 20.7505 51.1845H9.68357C7.84978 51.1867 6.09174 51.9162 4.79505 53.2128C3.49837 54.5095 2.76893 56.2676 2.76673 58.1014V62.9224C3.84161 63.5394 7.24608 65.0182 15.217 65.0182C17.9115 65.0504 20.6031 64.8323 23.2572 64.3666L23.7773 67.0836C20.952 67.5834 18.0861 67.8182 15.217 67.7849Z" fill="#004671"/>
<path id="Vector_5" d="M15.2187 51.1845C13.3035 51.1845 11.4313 50.6166 9.83883 49.5525C8.24637 48.4885 7.0052 46.9761 6.27228 45.2067C5.53935 43.4373 5.34759 41.4902 5.72123 39.6118C6.09487 37.7334 7.01714 36.0079 8.37141 34.6536C9.72568 33.2994 11.4511 32.3771 13.3296 32.0035C15.208 31.6298 17.155 31.8216 18.9245 32.5545C20.6939 33.2874 22.2063 34.5286 23.2703 36.1211C24.3344 37.7135 24.9023 39.5857 24.9023 41.501C24.8994 44.0683 23.8782 46.5297 22.0628 48.345C20.2474 50.1604 17.7861 51.1816 15.2187 51.1845ZM15.2187 34.5841C13.8507 34.5841 12.5134 34.9898 11.3759 35.7498C10.2385 36.5098 9.35193 37.5901 8.82841 38.854C8.30489 40.1179 8.16791 41.5086 8.4348 42.8504C8.70169 44.1921 9.36045 45.4246 10.3278 46.3919C11.2951 47.3592 12.5276 48.018 13.8693 48.2849C15.2111 48.5518 16.6018 48.4148 17.8657 47.8913C19.1296 47.3678 20.2098 46.4812 20.9699 45.3437C21.7299 44.2063 22.1356 42.869 22.1356 41.501C22.1334 39.6672 21.4039 37.9091 20.1072 36.6124C18.8106 35.3158 17.0525 34.5863 15.2187 34.5841Z" fill="#004671"/>
</g>
</svg>
