<svg width="86" height="82" viewBox="0 0 86 82" fill="none" xmlns="http://www.w3.org/2000/svg">
<g id="Group">
<path id="Vector" fill-rule="evenodd" clip-rule="evenodd" d="M43.6616 33.9112L46.1068 35.323L46.1081 35.3207L48.5675 36.7407C48.7639 36.8543 48.927 37.0176 49.0403 37.2142C49.1537 37.4108 49.2133 37.6338 49.2132 37.8607H49.2162V43.5406C49.2162 43.7841 49.1478 44.0228 49.0185 44.2292C48.8893 44.4356 48.7046 44.6015 48.4856 44.7079L46.0359 46.1195L43.6434 47.5007C43.4445 47.6151 43.2188 47.6744 42.9893 47.6726C42.7599 47.6707 42.5351 47.6078 42.338 47.4903L39.8928 46.0785L39.8915 46.0808L37.4321 44.6608C37.2357 44.5472 37.0727 44.3839 36.9593 44.1873C36.846 43.9907 36.7863 43.7677 36.7864 43.5408H36.7834V37.8609C36.7833 37.6173 36.8518 37.3787 36.981 37.1723C37.1102 36.9658 37.295 36.7999 37.5141 36.6936L39.9638 35.282L42.3562 33.9008C42.5551 33.7864 42.7809 33.727 43.0103 33.7288C43.2397 33.7306 43.4646 33.7936 43.6616 33.9112ZM33.4867 10.4376C34.5535 9.82241 35.2445 8.97705 35.55 7.83681C36.5091 4.25705 32.6397 1.30024 29.4454 3.14905C26.2469 5.00028 26.863 9.82019 30.4483 10.7808C31.4381 11.0459 32.5225 10.9506 33.4867 10.4376ZM38.1542 8.07312C38.8467 4.589 36.7104 1.15214 33.275 0.231535C29.673 -0.733743 25.9663 1.40755 25.001 5.01011C24.0812 8.44289 25.9926 12.011 29.3513 13.154C27.0022 15.5659 26.4725 19.3234 28.2027 22.3052L32.0445 28.9647L32.0467 28.9634L35.2983 34.5955C35.6697 35.287 36.4682 35.5077 37.1057 35.1389L39.1197 33.976L39.1184 33.9738L41.4919 32.6036C41.789 32.4328 42.0061 32.1511 42.0954 31.8203C42.1847 31.4896 42.139 31.1369 41.9683 30.8398L39.3215 26.2557L47.4387 21.5692L47.4374 21.567C49.4922 20.378 50.1832 17.7557 49.004 15.7175L46.6568 11.6521L46.6545 11.6534C44.9242 8.65992 41.4215 7.24129 38.1542 8.07312ZM37.5185 11.0989C39.9113 9.71565 43.0123 10.5369 44.4191 12.9486L44.4169 12.9499L46.7641 17.0153C47.2297 17.8212 46.9457 18.8632 46.1426 19.3317L46.1413 19.3295L36.9069 24.661C36.6098 24.833 36.3933 25.116 36.3049 25.4477C36.2165 25.7794 36.2635 26.1327 36.4355 26.4297L39.0834 31.0111L37.8232 31.7386L37.8219 31.7363L36.9284 32.2523L34.282 27.6689L34.2842 27.6676L30.4489 21.0297C29.7516 19.8205 29.6089 18.4495 29.9479 17.1845C30.2832 15.9329 31.0922 14.8091 32.2934 14.1156L37.5185 11.0989ZM64.6366 17.0201C66.6338 18.1726 69.1816 17.4888 70.3322 15.496L70.3343 15.4973C72.1707 12.3092 69.242 8.42769 65.6445 9.39148C65.1157 9.53238 64.6199 9.77638 64.1857 10.1095C63.7515 10.4426 63.3874 10.8582 63.1143 11.3324L63.1121 11.3311C61.9683 13.3173 62.6469 15.8678 64.6366 17.0201ZM68.8973 19.8112C72.2624 18.6686 74.1707 15.1036 73.2497 11.6664C72.2854 8.06682 68.5783 5.92256 64.9756 6.88784C63.3061 7.33508 61.8071 8.41953 60.8744 10.035L60.8766 10.0363C60.0313 11.5244 59.7868 13.1707 60.0963 14.7292C56.8267 13.8967 53.3203 15.3218 51.5936 18.3086L47.752 24.9625L47.7542 24.9638L44.279 30.9831C44.1083 31.2801 44.0625 31.6329 44.1519 31.9636C44.2412 32.2944 44.4583 32.5761 44.7553 32.7468L49.1415 35.2822L49.1428 35.28C49.757 35.6382 50.5522 35.4275 50.9103 34.8058L53.7347 29.9135L61.8488 34.5983L61.8501 34.596C63.8829 35.7819 66.5182 35.0807 67.7005 33.0328L67.6983 33.0315L70.0468 28.9638C71.7825 26.0147 71.2486 22.222 68.8973 19.8112ZM65.8808 20.7276C65.936 20.7648 65.9933 20.7973 66.0524 20.8251C67.1999 21.5199 67.9748 22.6185 68.3023 23.8403C68.6296 25.0621 68.5075 26.4015 67.8612 27.5794C67.8171 27.6428 67.7794 27.7092 67.7481 27.7777L65.4626 31.7363L65.4604 31.735C64.9941 32.5426 63.9467 32.82 63.1449 32.3598L63.1462 32.3576L53.9119 27.026C53.6149 26.854 53.2616 26.807 52.9299 26.8954C52.5982 26.9838 52.3152 27.2003 52.1432 27.4973L49.3187 32.3947L47.1637 31.1534L49.9898 26.2583L49.9921 26.2596L53.8337 19.6057C55.2288 17.1945 58.3389 16.3729 60.7334 17.7524L60.7321 17.7546L65.8808 20.7276ZM75.0787 47.8647C75.0787 51.5709 79.5765 53.418 82.1858 50.8085C84.8032 48.1911 82.9307 43.6963 79.2421 43.6963V43.7013C76.9424 43.7015 75.0787 45.5651 75.0787 47.8647ZM74.7924 52.951C73.8753 56.1925 70.8964 58.5183 67.4368 58.5182L62.7423 58.5183C60.3708 58.5183 58.456 56.5967 58.456 54.2371V44.8664L52.0579 44.8662C51.7151 44.8662 51.3864 44.73 51.144 44.4877C50.9017 44.2453 50.7655 43.9166 50.7655 43.5738H50.7605V38.5033C50.7605 38.1592 50.8972 37.8292 51.1405 37.5859C51.3838 37.3426 51.7138 37.2059 52.0579 37.2059H67.4368C70.8907 37.2059 73.8756 39.5368 74.7925 42.7783C76.0232 41.6984 77.6051 41.1041 79.2423 41.1065V41.1115C82.9833 41.1117 86 44.135 86 47.8645C86 51.5964 82.9741 54.6224 79.2421 54.6224C77.605 54.6249 76.023 54.0307 74.7924 52.951ZM72.4841 50.881V44.8482C72.4841 42.0747 70.2103 39.8007 67.4368 39.8007H53.3551V42.2814L59.7533 42.2764C60.0974 42.2764 60.4274 42.4131 60.6707 42.6564C60.914 42.8997 61.0507 43.2297 61.0507 43.5738V54.2367C61.0507 55.1695 61.8217 55.9333 62.7421 55.9333H67.4368C70.2008 55.9335 72.4841 53.6573 72.4841 50.881ZM11.2075 29.1267C12.1245 25.8852 15.1093 23.5543 18.5633 23.5543H23.2577C25.6199 23.5543 27.544 25.4782 27.544 27.8406V37.2113H33.9423C34.112 37.2113 34.2801 37.2447 34.4369 37.3096C34.5937 37.3746 34.7361 37.4698 34.8561 37.5898C34.9762 37.7098 35.0714 37.8523 35.1363 38.0091C35.2013 38.1659 35.2347 38.3339 35.2347 38.5037H35.2397V43.5742C35.2397 43.9182 35.103 44.2482 34.8597 44.4916C34.6164 44.7349 34.2864 44.8716 33.9423 44.8716H19.8116V44.8666H18.5634V44.8716C15.1095 44.8716 12.1245 42.5407 11.2075 39.2992C8.53181 41.6419 4.49592 41.5081 1.97949 38.9915C-0.659829 36.3522 -0.659829 32.0737 1.97949 29.4345C3.20277 28.2114 4.89219 27.455 6.75824 27.455V27.4601C8.46453 27.4599 10.0211 28.0889 11.2075 29.1267ZM13.5107 31.1964H13.5157C13.5157 28.4231 15.7896 26.1491 18.5631 26.1491H23.2575C24.1876 26.1491 24.9489 26.9105 24.9489 27.8406V38.5035C24.9489 38.8476 25.0856 39.1776 25.329 39.4209C25.5723 39.6642 25.9023 39.8009 26.2464 39.8009L32.6447 39.7959V42.2765H19.8114V42.2816H18.5633V42.2765C15.7897 42.2765 13.5159 40.0025 13.5159 37.229H13.5109L13.5107 31.1964ZM2.59465 34.2125C2.59465 37.915 7.09001 39.7683 9.70171 37.1566C12.3214 34.5369 10.4446 30.0443 6.75806 30.0443V30.0493C4.45829 30.0495 2.59465 31.913 2.59465 34.2125ZM48.3571 73.328C47.6649 76.8129 49.7997 80.2488 53.2363 81.1696C56.8383 82.1347 60.546 79.9912 61.5105 76.391C62.4304 72.9579 60.5223 69.39 57.1603 68.2471C58.0852 67.2976 58.7324 66.1334 59.0667 64.8859C59.5618 63.0384 59.3687 61.0036 58.3732 59.2097L57.6844 58.0092L54.4668 52.4364L54.4646 52.4377L51.0852 46.5843C50.7138 45.8928 49.9153 45.6721 49.2777 46.0409L46.8803 47.4251L46.8816 47.4273L44.8917 48.5761C44.5947 48.7468 44.3776 49.0285 44.2883 49.3593C44.1989 49.69 44.2447 50.0428 44.4154 50.3398L47.1898 55.1454L39.0726 59.8319L39.0739 59.8341C38.5869 60.1148 38.16 60.4889 37.8177 60.9349C37.4754 61.3808 37.2245 61.8899 37.0792 62.433C36.7932 63.4969 36.9299 64.6301 37.4605 65.5956L39.8952 69.8201L39.898 69.8183C41.643 72.7645 45.1167 74.1532 48.3571 73.328ZM48.9979 70.3024L51.6051 68.7943L54.2174 67.2861C56.62 65.8951 57.4552 62.7889 56.0684 60.3877L52.2268 53.7338L52.229 53.7326L49.4549 48.9277L48.1777 49.6651L48.1764 49.6629L47.2999 50.1689L50.0756 54.9716C50.2477 55.2686 50.2946 55.6219 50.2063 55.9536C50.1179 56.2853 49.9013 56.5683 49.6043 56.7403L40.3699 62.0718L40.3686 62.0696C39.5655 62.5381 39.2813 63.5799 39.7471 64.386L42.0513 68.3769L42.0539 68.3808L42.0535 68.3809L42.0943 68.4516L42.0921 68.4529C42.7995 69.6589 43.8925 70.4568 45.1633 70.7973C46.3856 71.1248 47.7258 71.0025 48.9039 70.3554L48.9217 70.3432L48.9228 70.3449L48.9979 70.3024ZM53.9053 78.6659C50.3292 77.7077 49.6975 72.8874 52.9025 71.0342C56.0966 69.1872 59.9659 72.1427 59.0069 75.7221C58.4108 77.9466 56.1283 79.2616 53.9053 78.6659ZM17.4629 61.5943C14.105 62.737 12.1928 66.3051 13.1126 69.7382C14.0785 73.3424 17.7867 75.4813 21.3866 74.5168C23.0562 74.0694 24.5553 72.9849 25.4879 71.3694L25.4857 71.3681C26.3414 69.9011 26.5715 68.2149 26.2662 66.6767C29.5329 67.5063 33.0419 66.0871 34.7687 63.096L34.7665 63.0947L41.994 50.5811L41.9918 50.5798C42.3501 49.9656 42.1394 49.1705 41.5177 48.8124L37.1317 46.2772C36.8346 46.1052 36.4814 46.0582 36.1497 46.1466C35.818 46.235 35.535 46.4515 35.3629 46.7486L32.6241 51.4923L24.5084 46.8068C22.4594 45.6239 19.8412 46.3293 18.6619 48.372L18.6641 48.3733L16.3148 52.4377C14.5852 55.4296 15.1116 59.1798 17.4629 61.5943ZM20.4043 60.6354L20.4056 60.6331C18.0017 59.2453 17.1696 56.1296 18.5547 53.735L20.8997 49.6681L20.9019 49.6694C21.3688 48.8606 22.4188 48.5837 23.2212 49.0468L32.4556 54.3783C32.752 54.5486 33.1038 54.5945 33.434 54.5059C33.7642 54.4173 34.0458 54.2015 34.2171 53.9057L34.2194 53.907L36.9569 49.1655L39.1075 50.4041L32.5311 61.8001L32.5288 61.7988C31.1408 64.2027 28.0251 65.0345 25.6305 63.6496L20.4043 60.6354ZM15.6163 69.0691C15.0193 66.8411 16.3306 64.5651 18.5601 63.9677C22.1604 63.003 25.0852 66.8867 23.2501 70.0733L23.2479 70.072C21.3987 73.2746 16.5743 72.6461 15.6163 69.0691ZM44.812 37.5586L42.9999 36.5123L39.3784 38.6062V42.7951L41.1891 43.8407L41.1878 43.8429L42.9999 44.889L46.6214 42.7951V38.6062L44.8107 37.5606L44.812 37.5586Z" fill="#004671"/>
</g>
</svg>
