<svg width="79" height="79" viewBox="0 0 79 79" fill="none" xmlns="http://www.w3.org/2000/svg">
<g id="Group">
<mask id="mask0_326_40074" style="mask-type:luminance" maskUnits="userSpaceOnUse" x="0" y="0" width="79" height="79">
<g id="Group_2">
<path id="Vector" d="M79 0H0V79H79V0Z" fill="white"/>
<path id="Vector_2" d="M30.2422 50.918C31.0939 50.918 31.7851 51.6092 31.7851 52.4609C31.7851 53.3127 31.0939 54.0039 30.2422 54.0039C29.3905 54.0039 28.6992 53.3127 28.6992 52.4609C28.6992 51.6092 29.3905 50.918 30.2422 50.918Z" fill="white"/>
</g>
</mask>
<g mask="url(#mask0_326_40074)">
<g id="Group_3">
<mask id="mask1_326_40074" style="mask-type:luminance" maskUnits="userSpaceOnUse" x="0" y="0" width="79" height="79">
<g id="b">
<path id="Vector_3" d="M77.4998 77.5V1.50022H1.5V77.5H77.4998Z" fill="white" stroke="white" stroke-width="3"/>
</g>
</mask>
<g mask="url(#mask1_326_40074)">
<g id="Group_4">
<path id="Vector_4" d="M54.0378 50.5631C53.8974 50.756 53.7415 50.9365 53.5734 51.1047C52.7357 51.9423 51.5785 52.4609 50.3007 52.4609H36.4141" stroke="#004671" stroke-width="3" stroke-miterlimit="10" stroke-linecap="round" stroke-linejoin="round"/>
<path id="Vector_5" d="M54.0377 50.5632L69.5553 34.9777C71.3636 33.1693 74.2937 33.1693 76.1005 34.9777C77.9089 36.7845 77.9089 39.7144 76.1005 41.5229L54.6967 62.9964C54.1239 63.5699 53.4437 64.0248 52.6949 64.3351C51.9462 64.6454 51.1436 64.805 50.333 64.8047H25.0253L12.4533 77.457L1.54297 66.502L22.9963 45.0116C23.5694 44.4381 24.2499 43.9832 24.9989 43.6729C25.7479 43.3626 26.5507 43.203 27.3614 43.2032H50.3006C52.8575 43.2032 54.9295 45.2753 54.9295 47.8321C54.9295 48.8536 54.5978 49.7979 54.0377 50.5632Z" stroke="#004671" stroke-width="3" stroke-miterlimit="10" stroke-linecap="round" stroke-linejoin="round"/>
<path id="Vector_6" d="M53.5352 51.0664L54.0366 50.5634" stroke="#004671" stroke-width="3" stroke-miterlimit="10" stroke-linecap="round" stroke-linejoin="round"/>
<path id="Vector_7" d="M39.4984 32.4008C39.3688 32.2558 33.3281 25.4033 33.3281 16.9727C33.3281 15.206 33.5935 13.5088 34.0132 11.9286C35.621 5.88481 39.5 1.54306 39.5 1.54306C39.5 1.54306 43.4051 5.91428 45.0022 11.9905C45.4142 13.5535 45.6718 15.2292 45.6718 16.9727C45.6718 24.7585 40.5199 31.1973 39.631 32.251C39.6034 32.2818 39.5818 32.3081 39.5632 32.3298L39.5 32.4023" stroke="#004671" stroke-width="3" stroke-miterlimit="10" stroke-linecap="round" stroke-linejoin="round"/>
<path id="Vector_8" d="M39.4389 32.2317C39.4743 32.3335 39.4943 32.3906 39.4976 32.4015L39.4991 32.4029C39.4991 32.4029 30.4311 34.2946 23.0511 30.0329C15.671 25.773 12.7734 16.9733 12.7734 16.9733C12.7734 16.9733 18.4731 15.7852 24.5108 17.4147" stroke="#004671" stroke-width="3" stroke-miterlimit="10" stroke-linecap="round" stroke-linejoin="round"/>
<path id="Vector_9" d="M34.0133 11.9288C29.5989 7.49736 24.0704 5.67666 24.0704 5.67666C24.0704 5.67666 22.8824 11.3765 24.5117 17.4141C24.9376 18.994 25.5563 20.5957 26.4404 22.1264C30.7006 29.5064 39.5001 32.4023 39.5001 32.4023C39.5001 32.4023 39.5155 32.3314 39.5387 32.1957C39.5495 32.2511 39.5772 32.4023 39.5772 32.4023C39.5772 32.4023 48.3768 29.5064 52.6384 22.1264C53.521 20.5957 54.1397 18.994 54.5656 17.4141C56.195 11.3748 55.0069 5.67666 55.0069 5.67666C55.0069 5.67666 49.4275 7.51449 45.0023 11.9905" stroke="#004671" stroke-width="3" stroke-miterlimit="10" stroke-linecap="round" stroke-linejoin="round"/>
<path id="Vector_10" d="M39.6383 32.2317C39.6352 32.2395 39.6338 32.2457 39.6321 32.2517C39.5953 32.352 39.5781 32.4029 39.5781 32.4029C39.5781 32.4029 48.6478 34.2946 56.0278 30.0329C63.4078 25.773 66.3038 16.9733 66.3038 16.9733C66.3038 16.9733 60.6058 15.7852 54.5665 17.4147" stroke="#004671" stroke-width="3" stroke-miterlimit="10" stroke-linecap="round" stroke-linejoin="round"/>
</g>
</g>
</g>
</g>
</g>
</svg>
