<svg width="68" height="68" viewBox="0 0 68 68" fill="none" xmlns="http://www.w3.org/2000/svg">
<g id="Frame" clip-path="url(#clip0_212_39428)">
<g id="Group">
<path id="Vector" d="M62.3334 41.6772V35.1333C62.3312 34.4211 62.1048 33.7277 61.6864 33.1514C61.2679 32.5751 60.6786 32.1452 60.0021 31.9226L57.8726 2.1046C57.8298 1.53362 57.5732 0.999774 57.1541 0.60965C56.735 0.219526 56.1841 0.00182233 55.6116 0L49.7885 0C49.2159 0.00182233 48.6651 0.219526 48.246 0.60965C47.8268 0.999774 47.5703 1.53362 47.5275 2.1046L45.4116 31.7333H43.0667V25.6349C43.0666 25.129 42.9372 24.6316 42.6908 24.1898C42.4444 23.748 42.0891 23.3765 41.6588 23.1106C41.2285 22.8447 40.7373 22.6931 40.232 22.6704C39.7266 22.6476 39.2238 22.7544 38.7714 22.9806L22.6667 31.0329V25.6349C22.6666 25.129 22.5372 24.6316 22.2908 24.1898C22.0444 23.748 21.6891 23.3765 21.2588 23.1106C20.8285 22.8447 20.3373 22.6931 19.832 22.6704C19.3266 22.6476 18.8238 22.7544 18.3714 22.9806L1.87909 31.2267C1.31304 31.5074 0.836949 31.941 0.504821 32.4785C0.172693 33.0159 -0.00218521 33.6357 2.06122e-05 34.2675V61.2C2.06122e-05 62.1017 0.358234 62.9665 0.995858 63.6042C1.63348 64.2418 2.49828 64.6 3.40002 64.6H43.8657C45.3672 65.845 47.1011 66.7792 48.9668 67.3483C50.8324 67.9174 52.7925 68.11 54.7333 67.9149C56.674 67.7199 58.5566 67.1411 60.2717 66.2121C61.9868 65.2832 63.5002 64.0226 64.7239 62.5037C65.9476 60.9848 66.8572 59.2379 67.3999 57.3644C67.9426 55.4909 68.1075 53.5282 67.8851 51.5904C67.6626 49.6526 67.0573 47.7784 66.1042 46.0766C65.1512 44.3748 63.8694 42.8793 62.3334 41.6772ZM55.6116 2.26667L55.8541 5.66667H49.546L49.7885 2.26667H55.6116ZM49.3782 7.93333H56.0105L57.7105 31.7333H47.6839L49.3782 7.93333ZM2.26669 61.2V34.2675C2.2668 34.0571 2.32549 33.8508 2.43618 33.6719C2.54687 33.4929 2.7052 33.3483 2.89342 33.2543L19.3857 25.0081C19.4925 24.9546 19.6113 24.9292 19.7307 24.9345C19.8501 24.9398 19.9661 24.9756 20.0678 25.0384C20.1694 25.1012 20.2533 25.189 20.3115 25.2934C20.3697 25.3978 20.4001 25.5154 20.4 25.6349V32.8667C20.3999 33.0599 20.4492 33.2499 20.5433 33.4187C20.6373 33.5875 20.7729 33.7294 20.9372 33.8311C21.1015 33.9327 21.2891 33.9906 21.4821 33.9994C21.6751 34.0081 21.8671 33.9674 22.04 33.881L39.78 25.0081C39.8871 24.9532 40.0064 24.9268 40.1266 24.9315C40.2468 24.9361 40.3638 24.9716 40.4663 25.0346C40.5688 25.0976 40.6533 25.1859 40.7118 25.291C40.7702 25.3962 40.8006 25.5146 40.8 25.6349V32.8667C40.8 33.1672 40.9194 33.4555 41.132 33.6681C41.3445 33.8806 41.6328 34 41.9334 34H58.9334C59.2339 34 59.5222 34.1194 59.7347 34.3319C59.9473 34.5445 60.0667 34.8328 60.0667 35.1333V40.2095C57.0846 38.6491 53.6576 38.1583 50.3575 38.8191C47.0573 39.4799 44.0834 41.2522 41.932 43.8405C39.7806 46.4288 38.5817 49.6765 38.5354 53.0419C38.489 56.4072 39.5979 59.6868 41.6772 62.3333H3.40002C3.09944 62.3333 2.81117 62.2139 2.59863 62.0014C2.38609 61.7889 2.26669 61.5006 2.26669 61.2ZM53.2667 65.7333C50.801 65.7333 48.3907 65.0022 46.3406 63.6323C44.2904 62.2625 42.6926 60.3154 41.749 58.0375C40.8054 55.7595 40.5585 53.2528 41.0396 50.8345C41.5206 48.4163 42.7079 46.1949 44.4514 44.4514C46.1949 42.7079 48.4163 41.5206 50.8346 41.0395C53.2529 40.5585 55.7595 40.8054 58.0375 41.749C60.3155 42.6925 62.2625 44.2904 63.6323 46.3406C65.0022 48.3907 65.7334 50.801 65.7334 53.2667C65.7295 56.5718 64.4148 59.7405 62.0776 62.0776C59.7405 64.4147 56.5719 65.7294 53.2667 65.7333Z" fill="#004671"/>
<path id="Vector_2" d="M57.9334 49.867H57.0516L59.231 46.3287C59.4328 46.006 59.5444 45.6352 59.5544 45.2548C59.5644 44.8744 59.4724 44.4983 59.2879 44.1654C59.1035 43.8326 58.8333 43.5552 58.5054 43.362C58.1775 43.1689 57.8039 43.067 57.4234 43.067H52.4741C52.0367 43.0639 51.6091 43.1968 51.2506 43.4474C50.892 43.6979 50.6202 44.0537 50.4726 44.4655L47.2018 52.7275C47.095 53.0479 47.0658 53.389 47.1167 53.7228C47.1675 54.0566 47.2969 54.3736 47.4943 54.6476C47.6916 54.9216 47.9512 55.1448 48.2516 55.2989C48.5521 55.4529 48.8849 55.5334 49.2226 55.5337H50.7231L48.8339 60.9657C48.6782 61.3837 48.6797 61.8441 48.8381 62.2611C48.9966 62.6781 49.3012 63.0233 49.6952 63.2324C49.9754 63.388 50.2904 63.4703 50.6109 63.4715C50.8911 63.4706 51.1673 63.4053 51.4182 63.2807C51.6691 63.1561 51.8881 62.9756 52.0582 62.753L59.6175 53.3078C59.8622 52.9926 60.0136 52.615 60.0544 52.2181C60.0952 51.8211 60.0238 51.4207 59.8484 51.0622C59.6729 50.7038 59.4005 50.4018 59.062 50.1905C58.7234 49.9792 58.3324 49.8671 57.9334 49.867ZM51.7329 59.5321L53.3864 54.7721C53.4457 54.6014 53.4633 54.4189 53.4378 54.2401C53.4122 54.0612 53.3442 53.891 53.2395 53.7437C53.1348 53.5964 52.9965 53.4763 52.8359 53.3934C52.6753 53.3104 52.4973 53.2671 52.3166 53.267H49.422L52.5625 45.3337H57.1808L54.0608 50.4065C53.9553 50.578 53.8973 50.7745 53.893 50.9758C53.8886 51.1771 53.938 51.376 54.036 51.5519C54.134 51.7278 54.2771 51.8744 54.4506 51.9767C54.624 52.0789 54.8216 52.1331 55.023 52.1337H57.6534L51.7329 59.5321ZM15.8674 39.667H9.06745C8.46629 39.667 7.88975 39.9058 7.46467 40.3309C7.03959 40.756 6.80078 41.3325 6.80078 41.9337V48.7337C6.80078 49.3348 7.03959 49.9114 7.46467 50.3364C7.88975 50.7615 8.46629 51.0003 9.06745 51.0003H15.8674C16.4686 51.0003 17.0451 50.7615 17.4702 50.3364C17.8953 49.9114 18.1341 49.3348 18.1341 48.7337V41.9337C18.1341 41.3325 17.8953 40.756 17.4702 40.3309C17.0451 39.9058 16.4686 39.667 15.8674 39.667ZM9.06745 48.7337V41.9337H15.8674V48.7337H9.06745ZM34.0008 39.667H27.2008C26.5996 39.667 26.0231 39.9058 25.598 40.3309C25.1729 40.756 24.9341 41.3325 24.9341 41.9337V48.7337C24.9341 49.3348 25.1729 49.9114 25.598 50.3364C26.0231 50.7615 26.5996 51.0003 27.2008 51.0003H34.0008C34.6019 51.0003 35.1785 50.7615 35.6036 50.3364C36.0286 49.9114 36.2674 49.3348 36.2674 48.7337V41.9337C36.2674 41.3325 36.0286 40.756 35.6036 40.3309C35.1785 39.9058 34.6019 39.667 34.0008 39.667ZM27.2008 48.7337V41.9337H34.0008V48.7337H27.2008Z" fill="#004671"/>
</g>
</g>
<defs>
<clipPath id="clip0_212_39428">
<rect width="68" height="68" fill="white"/>
</clipPath>
</defs>
</svg>
