<svg width="80" height="80" viewBox="0 0 80 80" fill="none" xmlns="http://www.w3.org/2000/svg">
<g id="Frame">
<g id="Group">
<path id="Vector" d="M72.9298 28.2363H78.8281M14.3547 70.2143H22.0688V57.9315M22.0688 57.9315H1.17188M22.0688 57.9315L28.2361 51.7641M1.17188 57.9315V70.2143H8.88594M1.17188 57.9315L7.06688 52.0365M22.0688 70.2137L28.0392 64.2432M28.2361 57.9315H49.133V70.2137H28.2361V57.9315ZM28.2361 57.9315L34.3064 51.8612" stroke="#004671" stroke-width="2" stroke-miterlimit="10" stroke-linecap="round" stroke-linejoin="round"/>
<path id="Vector_2" d="M49.1328 57.9314L78.8281 28.2361V40.5189L61.4437 57.9049M57.5766 61.7721L49.1328 70.2143M1.17188 39.4814H22.0688M1.17188 39.4814V51.7643H22.0688V39.4814M1.17188 39.4814L8.58594 32.0674M22.0688 39.4814L51.7641 9.78613M12.4531 28.2002L30.8672 9.78613H51.7641M51.7641 9.78613V15.4033M22.0688 51.7641L28.0392 45.7936M49.133 39.4819H28.2361V51.7641H49.133M49.133 39.4819V51.7641M49.133 39.4819L78.8281 9.78676V22.0689L49.133 51.7641M45.125 22.5939L57.9313 9.78613H78.8281M41.2578 26.4611L28.2359 39.4814M1.45219 51.4838L13.3356 39.6003M1.61156 69.7739L13.3356 58.0499M28.5961 51.4041L40.3989 39.6013M28.6758 69.7739L40.4183 58.0314" stroke="#004671" stroke-width="2" stroke-miterlimit="10" stroke-linecap="round" stroke-linejoin="round"/>
</g>
</g>
</svg>
