<svg width="70" height="70" viewBox="0 0 70 70" fill="none" xmlns="http://www.w3.org/2000/svg">
<g id="Group">
<path id="Vector" d="M39.607 52.1181L35.992 49.0524V41.0531C36.925 40.9003 37.8097 40.5327 38.5763 39.9793L44.235 45.638L43.8465 50.362C43.8352 50.4987 43.8525 50.6363 43.8972 50.766C43.9418 50.8957 44.0129 51.0147 44.1059 51.1156C44.1989 51.2164 44.3118 51.2969 44.4375 51.3519C44.5632 51.4069 44.6989 51.4352 44.8361 51.4351C45.0849 51.4348 45.3245 51.341 45.5074 51.1723C45.6903 51.0036 45.8032 50.7723 45.8236 50.5244L46.0743 47.4771L48.7434 50.1462C48.9369 50.3397 49.1909 50.4367 49.4446 50.4367C49.6984 50.4367 49.9524 50.3397 50.1459 50.146C50.238 50.0539 50.3111 49.9446 50.361 49.8243C50.4108 49.704 50.4365 49.575 50.4365 49.4448C50.4365 49.3145 50.4108 49.1855 50.361 49.0652C50.3111 48.9449 50.238 48.8356 50.1459 48.7435L47.4768 46.0744L50.5243 45.8237C50.6541 45.813 50.7805 45.7769 50.8964 45.7174C51.0122 45.6578 51.1152 45.5761 51.1995 45.4767C51.2837 45.3774 51.3476 45.2624 51.3874 45.1384C51.4272 45.0143 51.4423 44.8837 51.4316 44.7539C51.3868 44.2078 50.904 43.8025 50.3617 43.8466L45.6374 44.2351L39.9787 38.5766C40.5321 37.8099 40.8997 36.9251 41.0525 35.9921H49.052L52.1176 39.6071C52.2106 39.7171 52.3266 39.8055 52.4574 39.866C52.5882 39.9266 52.7306 39.9578 52.8747 39.9576C53.0639 39.9575 53.2491 39.9032 53.4085 39.8013C53.5679 39.6994 53.6948 39.554 53.7743 39.3823C53.8537 39.2106 53.8824 39.0197 53.857 38.8323C53.8315 38.6448 53.753 38.4685 53.6306 38.3242L51.6532 35.9922H55.4278C55.6909 35.9922 55.9432 35.8877 56.1292 35.7017C56.3152 35.5157 56.4197 35.2634 56.4197 35.0003C56.4197 34.7372 56.3152 34.4849 56.1292 34.2989C55.9432 34.1129 55.6909 34.0084 55.4278 34.0084H51.6529L53.6308 31.6763C53.7158 31.577 53.7804 31.462 53.8209 31.3377C53.8613 31.2134 53.8768 31.0823 53.8664 30.9521C53.856 30.8218 53.82 30.6948 53.7604 30.5785C53.7008 30.4622 53.6188 30.3588 53.5191 30.2743C53.4194 30.1897 53.304 30.1257 53.1795 30.086C53.055 30.0462 52.9239 30.0314 52.7937 30.0425C52.6634 30.0535 52.5367 30.0902 52.4207 30.1504C52.3047 30.2106 52.2017 30.2932 52.1177 30.3933L49.052 34.0084H41.0528C40.9001 33.0753 40.5324 32.1905 39.979 31.4239L45.6376 25.7655L50.3617 26.1539C50.6239 26.1754 50.8839 26.0918 51.0845 25.9217C51.2852 25.7515 51.41 25.5086 51.4316 25.2464C51.4531 24.9843 51.3696 24.7243 51.1995 24.5236C51.0293 24.323 50.7864 24.1982 50.5243 24.1766L47.477 23.9261L50.1461 21.257C50.2382 21.1649 50.3112 21.0556 50.3611 20.9352C50.4109 20.8149 50.4366 20.6859 50.4366 20.5557C50.4366 20.4255 50.4109 20.2965 50.3611 20.1762C50.3112 20.0558 50.2382 19.9465 50.1461 19.8544C49.9601 19.6684 49.7078 19.5639 49.4448 19.5639C49.1818 19.5639 48.9295 19.6684 48.7435 19.8544L46.0743 22.5235L45.8238 19.4761C45.7788 18.93 45.2972 18.5246 44.7539 18.5688C44.6241 18.5794 44.4976 18.6156 44.3818 18.6751C44.2659 18.7347 44.1629 18.8164 44.0787 18.9158C43.9944 19.0151 43.9306 19.1301 43.8908 19.2541C43.8509 19.3781 43.8359 19.5088 43.8466 19.6386L44.235 24.3629L38.5763 30.0215C37.8097 29.4681 36.925 29.1005 35.992 28.9477V20.9485L39.607 17.8828C39.8061 17.7122 39.9295 17.4697 39.9504 17.2084C39.9712 16.947 39.8877 16.6881 39.7181 16.4881C39.5486 16.2882 39.3068 16.1635 39.0455 16.1413C38.7843 16.1191 38.5249 16.2012 38.3241 16.3697L35.992 18.3471V14.5725C35.992 14.3094 35.8875 14.0571 35.7014 13.8711C35.5154 13.6851 35.2631 13.5806 35.0001 13.5806C34.737 13.5806 34.4847 13.6851 34.2987 13.8711C34.1126 14.0571 34.0081 14.3094 34.0081 14.5725V18.3471L31.6762 16.3696C31.5769 16.2845 31.4619 16.2199 31.3376 16.1795C31.2133 16.1391 31.0822 16.1236 30.952 16.134C30.8217 16.1443 30.6947 16.1804 30.5784 16.24C30.4621 16.2996 30.3587 16.3816 30.2742 16.4813C30.1896 16.5809 30.1256 16.6963 30.0859 16.8208C30.0461 16.9453 30.0313 17.0765 30.0424 17.2067C30.0534 17.3369 30.0901 17.4637 30.1503 17.5797C30.2105 17.6957 30.2931 17.7987 30.3932 17.8827L34.0081 20.9482V28.9475C33.0751 29.1003 32.1903 29.4679 31.4237 30.0213L25.765 24.3628L26.1535 19.6386C26.175 19.3764 26.0915 19.1164 25.9214 18.9158C25.7512 18.7152 25.5084 18.5904 25.2462 18.5688C24.7009 18.5251 24.2214 18.9301 24.1763 19.4761L23.9257 22.5235L21.2566 19.8544C21.1645 19.7623 21.0552 19.6892 20.9349 19.6394C20.8145 19.5895 20.6856 19.5639 20.5553 19.5639C20.4251 19.5639 20.2961 19.5895 20.1758 19.6394C20.0555 19.6892 19.9461 19.7623 19.854 19.8544C19.7619 19.9465 19.6889 20.0558 19.639 20.1762C19.5892 20.2965 19.5635 20.4255 19.5635 20.5557C19.5635 20.6859 19.5892 20.8149 19.639 20.9352C19.6889 21.0556 19.7619 21.1649 19.854 21.257L22.5231 23.9261L19.4757 24.1766C19.2135 24.1981 18.9706 24.323 18.8004 24.5236C18.6303 24.7243 18.5468 24.9843 18.5683 25.2465C18.5899 25.5087 18.7147 25.7516 18.9153 25.9218C19.116 26.092 19.376 26.1754 19.6382 26.1539L24.3625 25.7653L30.0211 31.4238C29.4677 32.1904 29.1 33.0753 28.9473 34.0084H20.9481L17.8824 30.3933C17.7118 30.1942 17.4693 30.0708 17.208 30.05C16.9467 30.0292 16.6877 30.1127 16.4877 30.2822C16.2878 30.4518 16.1631 30.6936 16.1409 30.9548C16.1187 31.216 16.2008 31.4754 16.3693 31.6763L18.347 34.0084H14.5723C14.3092 34.0084 14.0569 34.1129 13.8709 34.2989C13.6849 34.4849 13.5804 34.7372 13.5804 35.0003C13.5804 35.2634 13.6849 35.5157 13.8709 35.7017C14.0569 35.8877 14.3092 35.9922 14.5723 35.9922H18.347L16.3693 38.3242C16.2843 38.4234 16.2197 38.5385 16.1792 38.6628C16.1388 38.7871 16.1233 38.9181 16.1337 39.0484C16.1441 39.1787 16.1801 39.3056 16.2397 39.422C16.2993 39.5383 16.3813 39.6417 16.481 39.7262C16.5807 39.8107 16.6961 39.8747 16.8206 39.9145C16.9451 39.9543 17.0762 39.969 17.2065 39.958C17.3367 39.9469 17.4634 39.9102 17.5794 39.85C17.6954 39.7898 17.7984 39.7073 17.8824 39.6071L20.948 35.9922H28.9471C29.1 36.9253 29.4677 37.8101 30.0211 38.5767L24.3625 44.2351L19.6384 43.8466C19.0954 43.8021 18.6136 44.208 18.5685 44.7539C18.547 45.0161 18.6305 45.276 18.8007 45.4767C18.9708 45.6773 19.2137 45.8021 19.4758 45.8237L22.5231 46.0744L19.854 48.7435C19.7619 48.8356 19.6889 48.9449 19.639 49.0652C19.5892 49.1855 19.5635 49.3145 19.5635 49.4448C19.5635 49.575 19.5892 49.704 19.639 49.8243C19.6889 49.9446 19.7619 50.0539 19.854 50.146C19.946 50.2383 20.0553 50.3115 20.1757 50.3614C20.296 50.4112 20.425 50.4368 20.5553 50.4367C20.6856 50.4368 20.8146 50.4112 20.9349 50.3614C21.0553 50.3115 21.1646 50.2384 21.2566 50.1462L23.9258 47.4769L24.1763 50.5244C24.1983 50.7863 24.3232 51.0287 24.5238 51.1986C24.7243 51.3684 24.9841 51.4517 25.246 51.4302C25.5079 51.4087 25.7506 51.2841 25.9207 51.0838C26.0909 50.8836 26.1746 50.6239 26.1535 50.362L25.7651 45.6378L31.4237 39.9793C32.1903 40.5326 33.0751 40.9002 34.0081 41.0531V49.0524L30.3931 52.1181C30.194 52.2887 30.0706 52.5312 30.0497 52.7925C30.0289 53.0538 30.1124 53.3128 30.282 53.5127C30.4515 53.7127 30.6933 53.8374 30.9546 53.8596C31.2158 53.8818 31.4752 53.7997 31.676 53.6312L34.0081 51.6535V55.4282C34.0081 55.6913 34.1126 55.9436 34.2987 56.1296C34.4847 56.3156 34.737 56.4201 35.0001 56.4201C35.2631 56.4201 35.5154 56.3156 35.7014 56.1296C35.8875 55.9436 35.992 55.6913 35.992 55.4282V51.6535L38.3239 53.6312C38.5028 53.7833 38.73 53.8667 38.9649 53.8665C39.168 53.8667 39.3664 53.8044 39.533 53.6882C39.6996 53.5719 39.8266 53.4073 39.8966 53.2166C39.9667 53.0259 39.9765 52.8183 39.9247 52.6218C39.8729 52.4253 39.762 52.2495 39.607 52.1181ZM30.8496 35.0003C30.8496 32.7118 32.7116 30.85 35.0001 30.85C37.2885 30.85 39.1503 32.7118 39.1503 35.0003C39.1503 37.2888 37.2885 39.1507 35.0001 39.1507C32.7116 39.1507 30.8496 37.2888 30.8496 35.0003ZM69.5742 17.8515C69.4196 17.7441 69.2377 17.6829 69.0497 17.6751C68.8617 17.6673 68.6753 17.7131 68.5124 17.8073L66.2503 19.1132C62.6948 11.9026 57.1097 6.50135 50.7982 4.21018C45.5286 2.2975 39.9179 2.63546 34.5725 5.18764C34.3696 5.28462 34.2056 5.44769 34.1075 5.65011C34.0093 5.85253 33.9829 6.08228 34.0325 6.30169C34.0822 6.52112 34.2051 6.71713 34.3808 6.85756C34.5566 6.99799 34.7749 7.0745 34.9999 7.07453C45.6435 7.07453 55.3848 13.1721 60.066 22.6833L57.2378 24.3163C57.0748 24.4104 56.9419 24.5488 56.8546 24.7156C56.7674 24.8824 56.7294 25.0705 56.745 25.2581C56.7607 25.4456 56.8295 25.6248 56.9432 25.7748C57.057 25.9247 57.211 26.0392 57.3874 26.1049L66.9625 29.6708C67.0993 29.7218 67.2458 29.7419 67.3914 29.7298C67.537 29.7176 67.6781 29.6734 67.8046 29.6003C67.9312 29.5273 68.04 29.4272 68.1233 29.3072C68.2066 29.1872 68.2624 29.0502 68.2867 28.9062L69.9861 18.8308C70.0175 18.6453 69.9955 18.4547 69.9225 18.2812C69.8496 18.1078 69.7287 17.9587 69.5742 17.8515ZM66.5304 27.3931L60.0541 24.9812L61.8489 23.9449C62.062 23.8218 62.2218 23.6239 62.2972 23.3895C62.3725 23.1552 62.358 22.9012 62.2566 22.677C58.0713 13.4335 49.4971 7.01998 39.6702 5.45928C43.1803 4.62183 46.6808 4.82602 50.1213 6.07497C56.2199 8.28891 61.6115 13.7003 64.9136 20.922C64.9711 21.0477 65.0541 21.1599 65.1575 21.2516C65.2609 21.3433 65.3823 21.4123 65.5139 21.4544C65.6455 21.4964 65.7844 21.5105 65.9218 21.4957C66.0592 21.4809 66.192 21.4376 66.3116 21.3685L67.6799 20.5787L66.5304 27.3931ZM6.08239 35.9922C6.34547 35.9921 6.59775 35.8875 6.7838 35.7015C6.96984 35.5155 7.07443 35.2632 7.07458 35.0002C7.07458 24.3566 13.172 14.6152 22.6832 9.93406L24.3162 12.7623C24.4103 12.9253 24.5487 13.0582 24.7155 13.1454C24.8823 13.2326 25.0704 13.2706 25.258 13.2548C25.4455 13.2391 25.6247 13.1704 25.7746 13.0567C25.9245 12.943 26.039 12.789 26.1048 12.6126L29.6707 3.03761C29.7216 2.90072 29.7418 2.75426 29.7296 2.60869C29.7174 2.46313 29.6732 2.32206 29.6001 2.19555C29.5271 2.06905 29.427 1.96024 29.3071 1.87689C29.1871 1.79354 29.0502 1.73772 28.9062 1.71341L18.831 0.0138453C18.6454 -0.0174903 18.4547 0.00461855 18.2813 0.0775896C18.1078 0.150561 17.9587 0.271382 17.8513 0.425941C17.7439 0.580501 17.6828 0.76242 17.6749 0.95045C17.6671 1.13848 17.7129 1.32486 17.807 1.48782L19.1131 3.7498C11.9022 7.30536 6.50111 12.8905 4.20995 19.202C2.29712 24.4716 2.63522 30.0823 5.18754 35.4277C5.26821 35.5966 5.39506 35.7393 5.55341 35.8392C5.71176 35.9391 5.89515 35.9922 6.08239 35.9922ZM6.07459 19.8791C8.28853 13.7804 13.7001 8.38881 20.9216 5.08675C21.0473 5.0293 21.1596 4.94623 21.2512 4.84287C21.3429 4.7395 21.412 4.61812 21.4541 4.4865C21.4961 4.35488 21.5102 4.21593 21.4954 4.07855C21.4807 3.94117 21.4373 3.80839 21.3683 3.68872L20.5783 2.32046L27.3928 3.46994L24.9809 9.94625L23.9447 8.15146C23.8216 7.9383 23.6236 7.77851 23.3893 7.70317C23.155 7.62782 22.901 7.6423 22.6767 7.74379C13.4333 11.9288 7.01974 20.5033 5.45904 30.3301C4.62145 26.8199 4.82578 23.3196 6.07459 19.8791ZM35.0001 62.9258C24.3565 62.9258 14.6149 56.8284 9.93382 47.3171L12.7622 45.6843C12.9251 45.5901 13.0578 45.4516 13.145 45.2849C13.2321 45.1181 13.27 44.93 13.2543 44.7426C13.2387 44.5551 13.17 44.3759 13.0564 44.226C12.9427 44.0761 12.7888 43.9615 12.6125 43.8957L3.03737 40.3297C2.90048 40.2787 2.75402 40.2586 2.60847 40.2708C2.46292 40.2831 2.32185 40.3272 2.19536 40.4003C2.06886 40.4733 1.96005 40.5734 1.8767 40.6933C1.79334 40.8133 1.73751 40.9501 1.71317 41.0942L0.0137492 51.1694C-0.0174657 51.3549 0.00472369 51.5455 0.0777285 51.7189C0.150733 51.8923 0.271543 52.0414 0.426063 52.1487C0.580583 52.2561 0.762441 52.3173 0.950421 52.3252C1.1384 52.3331 1.32475 52.2873 1.48772 52.1933L3.7497 50.8873C7.30513 58.0979 12.8903 63.4991 19.2018 65.7903C21.4486 66.6059 23.7575 67.0123 26.0815 67.0123C29.2077 67.0123 32.3613 66.2769 35.4276 64.8127C35.6305 64.7157 35.7945 64.5526 35.8927 64.3502C35.9908 64.1478 36.0172 63.918 35.9676 63.6986C35.9179 63.4792 35.795 63.2831 35.6192 63.1427C35.4434 63.0023 35.2251 62.9258 35.0001 62.9258ZM19.8787 63.9255C13.78 61.7117 8.38843 56.3003 5.08651 49.0786C5.02905 48.9529 4.94597 48.8407 4.8426 48.749C4.73923 48.6573 4.61784 48.5883 4.48623 48.5462C4.35461 48.5042 4.21566 48.4901 4.07829 48.5049C3.94091 48.5197 3.80814 48.563 3.68849 48.6321L2.32022 49.4221L3.46956 42.6075L9.94587 45.0194L8.15108 46.0555C7.93791 46.1787 7.77812 46.3766 7.70278 46.611C7.62743 46.8454 7.64191 47.0993 7.74341 47.3236C11.9287 56.5675 20.5022 62.981 30.33 64.5412C26.8192 65.3788 23.3189 65.1746 19.8787 63.9255ZM63.6984 34.0328C63.4789 34.0825 63.2829 34.2053 63.1425 34.3811C63.0021 34.5569 62.9256 34.7752 62.9255 35.0002C62.9255 45.6438 56.828 55.3852 47.3167 60.0664L45.6838 57.2382C45.5895 57.0753 45.451 56.9426 45.2843 56.8554C45.1176 56.7682 44.9295 56.7301 44.742 56.7456C44.5545 56.7613 44.3753 56.8301 44.2254 56.9438C44.0754 57.0575 43.9609 57.2115 43.8952 57.3878L40.3293 66.9628C40.2783 67.0997 40.2582 67.2462 40.2704 67.3918C40.2826 67.5373 40.3268 67.6784 40.3998 67.8049C40.4729 67.9314 40.5729 68.0402 40.6929 68.1236C40.8128 68.2069 40.9497 68.2627 41.0938 68.287L51.1691 69.9863C51.3547 70.0176 51.5453 69.9955 51.7188 69.9225C51.8922 69.8495 52.0413 69.7287 52.1487 69.5742C52.256 69.4196 52.3172 69.2377 52.325 69.0497C52.3329 68.8617 52.2871 68.6753 52.1929 68.5123L50.887 66.2504C58.0976 62.695 63.4987 57.1098 65.7899 50.7983C67.7028 45.5287 67.3647 39.918 64.8124 34.5725C64.7154 34.3696 64.5523 34.2057 64.3499 34.1076C64.1475 34.0095 63.9177 33.9831 63.6984 34.0328ZM63.9254 50.1217C61.7114 56.2202 56.3 61.6118 49.0783 64.9138C48.9527 64.9713 48.8404 65.0544 48.7488 65.1578C48.6571 65.2611 48.588 65.3825 48.546 65.5141C48.5039 65.6458 48.4899 65.7847 48.5047 65.9221C48.5194 66.0594 48.5628 66.1922 48.6318 66.3119L49.4217 67.68L42.6071 66.5307L45.019 60.0545L46.0553 61.8491C46.1784 62.0623 46.3763 62.2221 46.6107 62.2974C46.845 62.3728 47.099 62.3583 47.3232 62.2568C56.5665 58.0718 62.9802 49.4973 64.5409 39.6705C65.3787 43.1809 65.1743 46.681 63.9254 50.1217Z" fill="#004671"/>
</g>
</svg>
