<svg width="65" height="65" viewBox="0 0 65 65" fill="none" xmlns="http://www.w3.org/2000/svg">
<g id="Group">
<path id="Vector" d="M44.0316 19.6973C43.3308 19.6973 42.7621 20.2647 42.7621 20.9664C42.7621 21.6676 43.3308 22.236 44.0316 22.236C44.7338 22.236 45.3011 21.6676 45.3011 20.9664C45.3013 20.7997 45.2686 20.6345 45.2048 20.4805C45.1411 20.3264 45.0475 20.1864 44.9296 20.0685C44.8117 19.9506 44.6717 19.8572 44.5176 19.7935C44.3635 19.7298 44.1984 19.6971 44.0316 19.6973ZM20.9648 42.7636C20.2625 42.7636 19.6953 43.3324 19.6953 44.0332C19.6951 44.1999 19.7279 44.3651 19.7916 44.5192C19.8553 44.6733 19.9489 44.8133 20.0668 44.9312C20.1847 45.0492 20.3247 45.1427 20.4788 45.2064C20.6329 45.2702 20.7981 45.3029 20.9648 45.3027C21.6656 45.3027 22.2344 44.7354 22.2344 44.0332C22.2344 43.3324 21.6656 42.7636 20.9648 42.7636Z" fill="#004671"/>
<path id="Vector_2" d="M63.4206 7.81033C63.2098 7.76125 62.99 7.76692 62.782 7.82681C62.574 7.88669 62.3848 7.9988 62.2323 8.15247L56.9692 13.4572H54.446L51.6684 10.5794V8.02108L56.8563 2.75595C57.0073 2.60262 57.1169 2.41338 57.1747 2.20604C57.2324 1.99869 57.2365 1.78006 57.1865 1.57071C57.1366 1.3614 57.0344 1.16821 56.8893 1.00928C56.7443 0.850362 56.5612 0.730936 56.3573 0.662232C55.054 0.222847 53.6903 0.000171368 52.3032 0.000171368C48.1683 0.000171368 44.4118 1.92834 41.9968 5.29006C39.7364 8.4371 39.0396 12.2938 40.0379 15.9849L30.6865 25.3362L15.1069 9.72098V6.65633C15.107 6.43709 15.0502 6.22159 14.9422 6.03081C14.8342 5.84003 14.6786 5.68048 14.4906 5.56771L5.51409 0.18108C5.27136 0.0352889 4.98683 -0.0251023 4.70581 0.00952201C4.42479 0.0441464 4.16343 0.171796 3.96335 0.372144L0.372989 3.962C0.172893 4.16234 0.045437 4.42377 0.0108459 4.7048C-0.0237451 4.98583 0.0365105 5.27036 0.182051 5.51324L5.56753 14.4897C5.68027 14.6776 5.83973 14.8331 6.03038 14.9411C6.22103 15.0492 6.4364 15.106 6.65552 15.1061L9.71941 15.1071L25.3004 30.7223L15.9847 40.038C12.2936 39.0402 8.4349 39.7381 5.28633 41.9999C1.92677 44.4135 0 48.169 0 52.3039C0 53.6905 0.222676 55.0547 0.662061 56.3575C0.731169 56.5626 0.851576 56.7467 1.01184 56.8922C1.17211 57.0377 1.36692 57.1398 1.57776 57.1888C1.78859 57.2378 2.00846 57.232 2.21646 57.1721C2.42446 57.1122 2.6137 57.0001 2.76618 56.8465L8.02878 51.5422H10.5659L13.4567 54.4329V56.9699L8.15217 62.2326C7.99854 62.3851 7.88645 62.5743 7.82655 62.7823C7.76664 62.9903 7.76091 63.2102 7.8099 63.421C7.85888 63.6319 7.96096 63.8267 8.10644 63.9869C8.25191 64.1472 8.43595 64.2676 8.64107 64.3368C9.94386 64.7761 11.3081 64.9988 12.6947 64.9988C16.8296 64.9988 20.5847 63.0717 22.9987 59.712C25.2606 56.5634 25.9584 52.7052 24.9605 49.0141L32.4424 41.5324L34.1563 43.3941L33.3698 44.18C32.8738 44.6759 32.8738 45.4798 33.3698 45.9758C33.8657 46.4711 34.669 46.4711 35.1654 45.9758L35.8776 45.2636L51.9581 62.7304C51.9699 62.7434 51.9823 62.7558 51.9948 62.7681C54.9702 65.7435 59.791 65.7446 62.768 62.7676C65.7365 59.7977 65.7365 54.9651 62.768 51.995C62.755 51.9821 62.7417 51.9696 62.7282 51.9573L45.2341 35.9076L45.9383 35.2034C46.4342 34.708 46.4342 33.9042 45.9383 33.4083C45.4424 32.9124 44.6389 32.9123 44.1425 33.4083L43.3615 34.1898L41.4963 32.4779L49.0144 24.9598C50.0871 25.2462 51.1928 25.391 52.3032 25.3903C59.3034 25.3903 64.998 19.6952 64.998 12.6955C64.998 11.3084 64.7753 9.94467 64.3361 8.64137C64.2671 8.43625 64.1467 8.2522 63.9865 8.10674C63.8262 7.96128 63.6314 7.85924 63.4206 7.81033ZM11.1446 12.941C10.9066 12.7023 10.5837 12.581 10.2465 12.581L7.37522 12.58L2.8694 5.05697L5.05782 2.86855L12.5679 7.37539V10.2466C12.5679 10.5828 12.7013 10.9052 12.9388 11.1431L28.8913 27.1319L27.0956 28.927L11.1446 12.941ZM43.4368 37.7048L60.9906 53.8085C62.9514 55.7903 62.9454 58.9988 60.9722 60.9729C58.9945 62.9506 55.793 62.9565 53.8073 60.9903L37.6744 43.4664L43.4368 37.7048ZM41.5642 35.9865L35.9532 41.5966L34.2393 39.735L39.6993 34.2746L41.5642 35.9865ZM52.3032 22.8512C51.2001 22.8524 50.1041 22.6737 49.0585 22.3221C48.8344 22.2469 48.5938 22.2357 48.3637 22.2896C48.1336 22.3436 47.923 22.4606 47.7557 22.6276C41.3912 28.9921 27.6773 42.7056 22.6274 47.7559C22.4601 47.9231 22.3428 48.1337 22.2889 48.364C22.2349 48.5943 22.2464 48.8351 22.3219 49.0592C23.3773 52.1928 22.8724 55.5352 20.9364 58.2306C19.0058 60.9179 16.0016 62.4596 12.6948 62.4596C12.3233 62.4596 11.9539 62.4393 11.5879 62.4002L15.6202 58.3992C15.7392 58.2812 15.8336 58.1408 15.898 57.9861C15.9624 57.8315 15.9956 57.6656 15.9956 57.4981V53.9067C15.9955 53.57 15.8617 53.2471 15.6236 53.0091L11.9892 49.3746C11.7512 49.1365 11.4283 49.0027 11.0916 49.0026H7.50014C7.33255 49.0026 7.16662 49.0358 7.0119 49.1003C6.85719 49.1647 6.71674 49.2591 6.59865 49.378L2.5981 53.4103C2.55834 53.0427 2.53846 52.6731 2.53856 52.3034C2.53856 48.9962 4.07977 45.9925 6.76775 44.0618C9.46246 42.1258 12.8054 41.6205 15.9396 42.6763C16.1636 42.7518 16.4043 42.7632 16.6345 42.7092C16.8647 42.6553 17.0752 42.538 17.2423 42.3708C17.3122 42.3014 42.3527 17.2603 42.3706 17.2424C42.5378 17.0753 42.655 16.8648 42.7089 16.6346C42.7629 16.4045 42.7515 16.1638 42.6761 15.9398C41.6203 12.8061 42.1242 9.46466 44.0586 6.77122C45.991 4.08159 48.9957 2.53924 52.3028 2.53924C52.6857 2.53924 53.0661 2.56056 53.4429 2.6022L49.4946 6.60961C49.2606 6.84701 49.1295 7.16698 49.1295 7.50031V11.0918C49.1294 11.4207 49.2571 11.7368 49.4856 11.9734L52.9932 15.6081C53.1116 15.7307 53.2535 15.8283 53.4104 15.8949C53.5674 15.9616 53.7361 15.9958 53.9066 15.9958H57.4981C57.6657 15.9958 57.8315 15.9626 57.9862 15.8982C58.1408 15.8337 58.2812 15.7393 58.3991 15.6204L62.3997 11.5886C62.4393 11.9546 62.4591 12.324 62.4591 12.6955C62.4591 18.2954 57.9032 22.8512 52.3033 22.8512H52.3032Z" fill="#004671"/>
<path id="Vector_3" d="M39.5452 23.6589L23.6587 39.5455C23.1632 40.041 23.1632 40.8448 23.6587 41.3406C24.1546 41.8366 24.9585 41.8366 25.4544 41.3406L41.3409 25.4542C41.8368 24.9588 41.8368 24.1549 41.3409 23.6591C40.845 23.1632 40.0412 23.1631 39.5452 23.6591V23.6589ZM55.5879 57.3834C56.0839 57.8779 56.8877 57.8779 57.3836 57.3805C57.8785 56.8841 57.8771 56.0801 57.3807 55.5853L45.9375 44.1788C45.4411 43.6839 44.6367 43.6854 44.1424 44.1818C43.6469 44.6787 43.6484 45.4821 44.1448 45.9769L55.5879 57.3834Z" fill="#004671"/>
</g>
</svg>
