<?xml version="1.0" standalone="no"?>
<svg viewBox="0 0 200 200" xmlns="http://www.w3.org/2000/svg">
  <path fill="#FF0066" d="M41.5,-62.6C55.2,-55.8,68.7,-46.7,73.1,-34.2C77.5,-21.8,72.8,-6,70.7,10.3C68.6,26.6,69,43.4,61,53.2C53,62.9,36.6,65.7,20.3,71.4C4.1,77.2,-11.8,85.9,-27.2,84.9C-42.5,83.9,-57.2,73.1,-68.8,59.7C-80.4,46.2,-88.9,30.1,-89.9,13.8C-90.9,-2.5,-84.4,-19,-76.6,-34.5C-68.8,-49.9,-59.7,-64.3,-46.7,-71.4C-33.7,-78.6,-16.9,-78.4,-1.5,-76.1C13.9,-73.8,27.8,-69.4,41.5,-62.6Z" transform="translate(100 100)" />
</svg>
