<svg width="70" height="70" viewBox="0 0 70 70" fill="none" xmlns="http://www.w3.org/2000/svg">
<path id="Vector" d="M66.5 31.5H65.4722L65.6273 31.3017C66.1973 30.5682 66.4525 29.6383 66.3369 28.7167C66.2213 27.795 65.7442 26.957 65.0107 26.3871C64.2773 25.8171 63.3474 25.5619 62.4258 25.6775C61.5041 25.7932 60.6661 26.2702 60.0962 27.0037L56.5962 31.5H43.449L52.7462 22.204L58.4022 22.904C59.3232 23.0181 60.2519 22.7617 60.984 22.1912C61.3488 21.9098 61.6538 21.5586 61.8812 21.1579C62.1085 20.7573 62.2537 20.3153 62.3082 19.8578C62.4159 18.9384 62.1572 18.0135 61.5879 17.2835C61.0186 16.5535 60.1847 16.0772 59.2667 15.9577L59.0252 15.9273L59.7508 15.2017C60.4056 14.5444 60.7733 13.6544 60.7733 12.7266C60.7733 11.7988 60.4056 10.9088 59.7508 10.2515C59.0834 9.61617 58.1972 9.26183 57.2757 9.26183C56.3543 9.26183 55.4681 9.61617 54.8007 10.2515L54.0738 10.9772L54.0412 10.7333C53.922 9.81511 53.445 8.98113 52.7138 8.413C51.9827 7.84487 51.0567 7.5886 50.1375 7.7C49.2155 7.81483 48.3768 8.29096 47.8056 9.02378C47.2344 9.75661 46.9775 10.6862 47.0913 11.6083L47.7913 17.262L38.5 26.551V13.4038L42.9987 9.90383C43.7314 9.3328 44.2072 8.49409 44.3215 7.57221C44.4359 6.65032 44.1793 5.72079 43.6082 4.98808C43.0372 4.25538 42.1985 3.77953 41.2766 3.66521C40.3547 3.55089 39.4252 3.80747 38.6925 4.3785L38.5 4.52783V3.5C38.5 2.57174 38.1312 1.6815 37.4749 1.02513C36.8185 0.368749 35.9283 0 35 0C34.0717 0 33.1815 0.368749 32.5251 1.02513C31.8687 1.6815 31.5 2.57174 31.5 3.5V4.52783L31.3017 4.37267C30.9385 4.09046 30.5233 3.88254 30.0797 3.7608C29.6362 3.63905 29.173 3.60586 28.7167 3.66311C28.2603 3.72037 27.8197 3.86695 27.42 4.09449C27.0203 4.32203 26.6693 4.62607 26.3871 4.98925C26.1049 5.35243 25.897 5.76764 25.7752 6.21118C25.6535 6.65471 25.6203 7.11788 25.6775 7.57424C25.7348 8.0306 25.8814 8.47122 26.1089 8.87093C26.3364 9.27064 26.6405 9.62162 27.0037 9.90383L31.5 13.4038V26.551L22.204 17.2538L22.904 11.5978C23.0139 10.679 22.7555 9.75401 22.1853 9.02519C21.615 8.29638 20.7794 7.82307 19.861 7.70878C18.9427 7.59449 18.0165 7.84854 17.285 8.41534C16.5535 8.98214 16.0763 9.81557 15.9577 10.7333L15.9273 10.9748L15.2017 10.2492C14.534 9.61437 13.6479 9.26039 12.7266 9.26039C11.8053 9.26039 10.9192 9.61437 10.2515 10.2492C9.92643 10.5742 9.66857 10.96 9.49264 11.3847C9.31671 11.8094 9.22616 12.2646 9.22616 12.7242C9.22616 13.1839 9.31671 13.6391 9.49264 14.0638C9.66857 14.4885 9.92643 14.8743 10.2515 15.1993L10.9772 15.9262L10.7275 15.9577C9.81006 16.0785 8.9772 16.5561 8.40942 17.2868C7.84163 18.0175 7.58465 18.9425 7.69417 19.8613C7.75029 20.3182 7.89597 20.7595 8.12287 21.1599C8.34977 21.5604 8.65343 21.9122 9.01646 22.1951C9.3795 22.4781 9.79478 22.6866 10.2385 22.8089C10.6823 22.9311 11.1458 22.9646 11.6025 22.9075L17.2562 22.2075L26.551 31.5H13.4038L9.90383 27.0013C9.62109 26.6385 9.26965 26.335 8.86959 26.108C8.46953 25.881 8.02868 25.7351 7.57221 25.6785C6.65032 25.5641 5.72079 25.8207 4.98808 26.3917C4.25538 26.9628 3.77953 27.8015 3.66521 28.7234C3.55089 29.6453 3.80747 30.5748 4.3785 31.3075L4.52783 31.5H3.5C2.57174 31.5 1.6815 31.8687 1.02513 32.5251C0.368749 33.1815 0 34.0717 0 35C0 35.9283 0.368749 36.8185 1.02513 37.4749C1.6815 38.1312 2.57174 38.5 3.5 38.5H4.52783L4.37267 38.6983C3.80272 39.4318 3.54748 40.3617 3.66311 41.2833C3.77875 42.205 4.25577 43.043 4.98925 43.6129C5.72273 44.1829 6.65258 44.4381 7.57424 44.3225C8.4959 44.2068 9.33388 43.7298 9.90383 42.9963L13.4038 38.5H26.551L17.2538 47.796L11.5978 47.096C11.1414 47.0392 10.6782 47.0729 10.2348 47.1952C9.79139 47.3175 9.37643 47.5261 9.01367 47.8089C8.6509 48.0917 8.34744 48.4432 8.12063 48.8434C7.89382 49.2435 7.74811 49.6845 7.69183 50.141C7.58373 51.0606 7.84235 51.9858 8.41167 52.7161C8.98098 53.4463 9.81512 53.9228 10.7333 54.0423L10.9748 54.0727L10.2492 54.7983C9.59437 55.4556 9.22672 56.3456 9.22672 57.2734C9.22672 58.2012 9.59437 59.0912 10.2492 59.7485C10.9166 60.3838 11.8028 60.7382 12.7242 60.7382C13.6457 60.7382 14.5319 60.3838 15.1993 59.7485L15.9262 59.0228L15.9577 59.2725C16.0742 60.1919 16.5506 61.0276 17.2824 61.5962C18.0142 62.1649 18.9416 62.4201 19.8613 62.3058C20.3182 62.2497 20.7595 62.104 21.1599 61.8771C21.5604 61.6502 21.9122 61.3466 22.1951 60.9835C22.4781 60.6205 22.6866 60.2052 22.8089 59.7615C22.9311 59.3177 22.9646 58.8542 22.9075 58.3975L22.2075 52.7438L31.5 43.449V56.5962L27.0013 60.0962C26.2686 60.6672 25.7928 61.5059 25.6785 62.4278C25.5641 63.3497 25.8207 64.2792 26.3917 65.0119C26.9628 65.7446 27.8015 66.2205 28.7234 66.3348C29.6453 66.4491 30.5748 66.1925 31.3075 65.6215L31.5 65.4722V66.5C31.5 67.4283 31.8687 68.3185 32.5251 68.9749C33.1815 69.6312 34.0717 70 35 70C35.9283 70 36.8185 69.6312 37.4749 68.9749C38.1312 68.3185 38.5 67.4283 38.5 66.5V65.4722L38.6983 65.6273C39.4318 66.1973 40.3617 66.4525 41.2833 66.3369C42.205 66.2213 43.043 65.7442 43.6129 65.0107C44.1829 64.2773 44.4381 63.3474 44.3225 62.4258C44.2068 61.5041 43.7298 60.6661 42.9963 60.0962L38.5 56.5962V43.449L47.796 52.7462L47.096 58.4022C46.9817 59.3239 47.2382 60.2533 47.8091 60.986C48.3801 61.7186 49.2187 62.1944 50.1404 62.3088C51.0622 62.4231 51.9916 62.1666 52.7242 61.5956C53.4569 61.0247 53.9327 60.1861 54.047 59.2643L54.0773 59.0228L54.803 59.7485C55.4707 60.3833 56.3568 60.7373 57.2781 60.7373C58.1994 60.7373 59.0855 60.3833 59.7532 59.7485C60.0782 59.4235 60.3361 59.0376 60.512 58.6129C60.688 58.1883 60.7785 57.7331 60.7785 57.2734C60.7785 56.8137 60.688 56.3586 60.512 55.9339C60.3361 55.5092 60.0782 55.1233 59.7532 54.7983L59.0275 54.0715L59.2772 54.04C60.1946 53.9191 61.0275 53.4416 61.5952 52.7109C62.163 51.9802 62.42 51.0552 62.3105 50.1363C62.2544 49.6795 62.1087 49.2382 61.8818 48.8377C61.6549 48.4373 61.3512 48.0855 60.9882 47.8025C60.6252 47.5196 60.2099 47.311 59.7661 47.1888C59.3224 47.0665 58.8589 47.033 58.4022 47.0902L52.7485 47.7902L43.449 38.5H56.5962L60.0962 42.9987C60.6672 43.7314 61.5059 44.2072 62.4278 44.3215C63.3497 44.4359 64.2792 44.1793 65.0119 43.6082C65.7446 43.0372 66.2205 42.1985 66.3348 41.2766C66.4491 40.3547 66.1925 39.4252 65.6215 38.6925L65.4722 38.5H66.5C67.4283 38.5 68.3185 38.1312 68.9749 37.4749C69.6312 36.8185 70 35.9283 70 35C70 34.0717 69.6312 33.1815 68.9749 32.5251C68.3185 31.8687 67.4283 31.5 66.5 31.5ZM66.5 36.1667H63.0817C62.8632 36.1668 62.6491 36.2282 62.4639 36.3441C62.2786 36.4599 62.1296 36.6254 62.0338 36.8217C61.938 37.0181 61.8992 37.2374 61.9219 37.4547C61.9447 37.672 62.028 37.8786 62.1623 38.0508L63.7793 40.1228C63.8739 40.2438 63.9438 40.3822 63.9849 40.5302C64.026 40.6781 64.0376 40.8327 64.019 40.9851C64.0003 41.1376 63.9519 41.2848 63.8763 41.4185C63.8008 41.5522 63.6996 41.6697 63.5787 41.7643C63.4577 41.8589 63.3193 41.9288 63.1713 41.9699C63.0234 42.011 62.8688 42.0226 62.7164 42.004C62.5639 41.9853 62.4167 41.9369 62.283 41.8613C62.1493 41.7858 62.0318 41.6846 61.9372 41.5637L58.0872 36.617C57.9781 36.4768 57.8385 36.3634 57.679 36.2854C57.5195 36.2073 57.3443 36.1667 57.1667 36.1667H40.6327C40.402 36.1667 40.1764 36.2352 39.9846 36.3634C39.7928 36.4916 39.6433 36.6738 39.555 36.8869C39.4668 37.1001 39.4437 37.3346 39.4887 37.5609C39.5336 37.7871 39.6447 37.995 39.8078 38.1582L51.5002 49.8493C51.6262 49.9743 51.7789 50.0691 51.9468 50.1266C52.1147 50.1842 52.2935 50.2031 52.4697 50.1818L58.6868 49.4072C58.9958 49.3698 59.307 49.4562 59.5525 49.6475C59.6738 49.7406 59.7752 49.857 59.851 49.9898C59.9267 50.1226 59.9751 50.2692 59.9935 50.421C60.0293 50.7282 59.9432 51.0372 59.7536 51.2815C59.564 51.5258 59.2861 51.686 58.9797 51.7277L56.364 52.0485C56.147 52.0753 55.942 52.1625 55.7722 52.3002C55.6024 52.4379 55.4748 52.6206 55.4037 52.8273C55.3327 53.0341 55.3212 53.2566 55.3705 53.4696C55.4198 53.6825 55.528 53.8774 55.6827 54.0318L58.1 56.4503C58.3184 56.6691 58.441 56.9655 58.441 57.2746C58.441 57.5837 58.3184 57.8801 58.1 58.0988C57.8773 58.3095 57.5823 58.427 57.2757 58.427C56.9692 58.427 56.6742 58.3095 56.4515 58.0988L54.033 55.6827C53.8784 55.528 53.6835 55.4198 53.4705 55.3706C53.2574 55.3213 53.0348 55.3329 52.828 55.4041C52.6213 55.4752 52.4386 55.603 52.301 55.773C52.1634 55.9429 52.0763 56.1481 52.0497 56.3652L51.73 58.9715C51.6895 59.2795 51.5295 59.5592 51.2847 59.7504C51.0398 59.9416 50.7296 60.0289 50.421 59.9935C50.2694 59.975 50.123 59.9265 49.9904 59.8507C49.8578 59.775 49.7416 59.6736 49.6487 59.5525C49.5537 59.4315 49.4835 59.293 49.4423 59.1448C49.4011 58.9967 49.3895 58.8418 49.4083 58.6892L50.183 52.4697C50.205 52.2934 50.1865 52.1145 50.1289 51.9464C50.0713 51.7784 49.9761 51.6258 49.8505 51.5002L38.1582 39.8078C37.995 39.6447 37.7871 39.5336 37.5609 39.4887C37.3346 39.4437 37.1001 39.4668 36.8869 39.555C36.6738 39.6433 36.4916 39.7928 36.3634 39.9846C36.2352 40.1764 36.1667 40.402 36.1667 40.6327V57.1667C36.1667 57.3443 36.2073 57.5195 36.2854 57.679C36.3634 57.8385 36.4768 57.9781 36.617 58.0872L41.5613 61.9372C41.6826 62.0309 41.7842 62.1477 41.8604 62.2807C41.9365 62.4137 41.9857 62.5605 42.0052 62.7125C42.0246 62.8645 42.0139 63.0189 41.9737 63.1669C41.9335 63.3148 41.8645 63.4533 41.7707 63.5746C41.677 63.6958 41.5603 63.7975 41.4272 63.8736C41.2942 63.9498 41.1475 63.999 40.9954 64.0184C40.8434 64.0379 40.689 64.0272 40.5411 63.9869C40.3931 63.9467 40.2546 63.8778 40.1333 63.784L38.0555 62.1623C37.8833 62.0266 37.6763 61.9421 37.4582 61.9187C37.2402 61.8952 37.0199 61.9336 36.8228 62.0296C36.6256 62.1256 36.4594 62.2752 36.3434 62.4613C36.2273 62.6473 36.1661 62.8624 36.1667 63.0817V66.5C36.1667 66.8094 36.0438 67.1062 35.825 67.325C35.6062 67.5437 35.3094 67.6667 35 67.6667C34.6906 67.6667 34.3938 67.5437 34.175 67.325C33.9562 67.1062 33.8333 66.8094 33.8333 66.5V63.0817C33.8332 62.8632 33.7718 62.6491 33.6559 62.4639C33.5401 62.2786 33.3746 62.1296 33.1783 62.0338C32.9819 61.938 32.7626 61.8992 32.5453 61.9219C32.328 61.9447 32.1214 62.028 31.9492 62.1623L29.8772 63.7793C29.6329 63.9704 29.3227 64.0566 29.0149 64.019C28.707 63.9813 28.4267 63.8229 28.2357 63.5787C28.0446 63.3344 27.9584 63.0242 27.996 62.7164C28.0337 62.4085 28.192 62.1282 28.4363 61.9372L33.383 58.0872C33.5232 57.9781 33.6366 57.8385 33.7146 57.679C33.7927 57.5195 33.8333 57.3443 33.8333 57.1667V40.6327C33.8333 40.402 33.7648 40.1764 33.6366 39.9846C33.5084 39.7928 33.3262 39.6433 33.1131 39.555C32.8999 39.4668 32.6654 39.4437 32.4391 39.4887C32.2128 39.5336 32.005 39.6447 31.8418 39.8078L20.1507 51.5002C20.0251 51.6258 19.9299 51.7784 19.8723 51.9464C19.8146 52.1145 19.7961 52.2934 19.8182 52.4697L20.5928 58.6868C20.612 58.8398 20.6006 58.9951 20.5593 59.1437C20.5181 59.2923 20.4478 59.4312 20.3525 59.5525C20.2594 59.6738 20.143 59.7752 20.0102 59.851C19.8774 59.9267 19.7308 59.9751 19.579 59.9935C19.2718 60.0293 18.9628 59.9432 18.7185 59.7536C18.4742 59.564 18.314 59.2861 18.2723 58.9797L17.9515 56.3652C17.9249 56.1481 17.8378 55.9429 17.7002 55.773C17.5625 55.603 17.3799 55.4752 17.1731 55.4041C16.9664 55.3329 16.7438 55.3213 16.5307 55.3706C16.3176 55.4198 16.1227 55.528 15.9682 55.6827L13.5497 58.1C13.3272 58.3112 13.0322 58.429 12.7254 58.429C12.4187 58.429 12.1236 58.3112 11.9012 58.1C11.6828 57.8813 11.5602 57.5848 11.5602 57.2757C11.5602 56.9667 11.6828 56.6702 11.9012 56.4515L14.3173 54.0342C14.472 53.8797 14.5802 53.6849 14.6295 53.4719C14.6788 53.2589 14.6673 53.0364 14.5963 52.8296C14.5252 52.6229 14.3976 52.4403 14.2278 52.3026C14.058 52.1649 13.853 52.0776 13.636 52.0508L11.0285 51.7312C10.7204 51.6909 10.4404 51.5311 10.2492 51.2861C10.058 51.0412 9.97079 50.7309 10.0065 50.4222C10.025 50.2706 10.0735 50.1242 10.1493 49.9916C10.225 49.859 10.3264 49.7428 10.4475 49.6498C10.5685 49.5548 10.707 49.4847 10.8552 49.4435C11.0033 49.4022 11.1582 49.3907 11.3108 49.4095L17.5303 50.1842C17.7066 50.2062 17.8855 50.1877 18.0536 50.1301C18.2216 50.0725 18.3742 49.9772 18.4998 49.8517L30.1922 38.1582C30.3553 37.995 30.4664 37.7871 30.5113 37.5609C30.5563 37.3346 30.5332 37.1001 30.445 36.8869C30.3567 36.6738 30.2072 36.4916 30.0154 36.3634C29.8236 36.2352 29.598 36.1667 29.3673 36.1667H12.8333C12.6557 36.1667 12.4805 36.2073 12.321 36.2854C12.1615 36.3634 12.0219 36.4768 11.9128 36.617L8.06283 41.5613C7.96907 41.6826 7.85234 41.7842 7.71931 41.8604C7.58627 41.9365 7.43954 41.9857 7.2875 42.0052C7.13545 42.0246 6.98106 42.0139 6.83314 41.9737C6.68523 41.9335 6.54668 41.8645 6.42542 41.7707C6.30415 41.677 6.20254 41.5603 6.12639 41.4272C6.05024 41.2942 6.00103 41.1475 5.98159 40.9954C5.96214 40.8434 5.97283 40.689 6.01305 40.5411C6.05328 40.3931 6.12224 40.2546 6.216 40.1333L7.83767 38.0555C7.97341 37.8833 8.05787 37.6763 8.08134 37.4582C8.10482 37.2402 8.06636 37.0199 7.97039 36.8228C7.87442 36.6256 7.72481 36.4594 7.53873 36.3434C7.35265 36.2273 7.13763 36.1661 6.91833 36.1667H3.5C3.19058 36.1667 2.89383 36.0438 2.67504 35.825C2.45625 35.6062 2.33333 35.3094 2.33333 35C2.33333 34.6906 2.45625 34.3938 2.67504 34.175C2.89383 33.9562 3.19058 33.8333 3.5 33.8333H6.91833C7.13682 33.8332 7.35088 33.7718 7.53614 33.6559C7.7214 33.5401 7.87042 33.3746 7.96623 33.1783C8.06204 32.9819 8.10078 32.7626 8.07805 32.5453C8.05532 32.328 7.97203 32.1214 7.83767 31.9492L6.22067 29.8772C6.12606 29.7562 6.0562 29.6178 6.01509 29.4698C5.97397 29.3219 5.9624 29.1673 5.98103 29.0149C5.99967 28.8624 6.04814 28.7152 6.12369 28.5815C6.19923 28.4478 6.30037 28.3303 6.42133 28.2357C6.54229 28.1411 6.6807 28.0712 6.82865 28.0301C6.97661 27.989 7.13122 27.9774 7.28364 27.996C7.43607 28.0147 7.58333 28.0631 7.71703 28.1387C7.85072 28.2142 7.96823 28.3154 8.06283 28.4363L11.9128 33.383C12.0219 33.5232 12.1615 33.6366 12.321 33.7146C12.4805 33.7927 12.6557 33.8333 12.8333 33.8333H29.3673C29.598 33.8333 29.8236 33.7648 30.0154 33.6366C30.2072 33.5084 30.3567 33.3262 30.445 33.1131C30.5332 32.8999 30.5563 32.6654 30.5113 32.4391C30.4664 32.2128 30.3553 32.005 30.1922 31.8418L18.4998 20.1507C18.3742 20.0251 18.2216 19.9299 18.0536 19.8723C17.8855 19.8146 17.7066 19.7961 17.5303 19.8182L11.3167 20.5928C11.0077 20.6299 10.6966 20.5436 10.451 20.3525C10.3297 20.2594 10.2283 20.143 10.1525 20.0102C10.0768 19.8774 10.0284 19.7308 10.01 19.579C9.97418 19.2718 10.0603 18.9628 10.2499 18.7185C10.4395 18.4742 10.7174 18.314 11.0238 18.2723L13.6395 17.9515C13.8565 17.9247 14.0615 17.8375 14.2313 17.6998C14.4011 17.5621 14.5287 17.3794 14.5998 17.1727C14.6708 16.9659 14.6823 16.7434 14.633 16.5304C14.5837 16.3175 14.4755 16.1226 14.3208 15.9682L11.9 13.5497C11.6816 13.3309 11.559 13.0345 11.559 12.7254C11.559 12.4163 11.6816 12.1199 11.9 11.9012C12.1227 11.6905 12.4177 11.573 12.7242 11.573C13.0308 11.573 13.3258 11.6905 13.5485 11.9012L15.967 14.3173C16.1215 14.472 16.3163 14.5802 16.5293 14.6295C16.7422 14.6788 16.9648 14.6673 17.1715 14.5963C17.3783 14.5252 17.5609 14.3976 17.6986 14.2278C17.8363 14.058 17.9235 13.853 17.9503 13.636L18.27 11.0285C18.3088 10.7197 18.4683 10.4388 18.7136 10.2473C18.9589 10.0558 19.27 9.96922 19.579 10.0065C19.7318 10.0254 19.8795 10.0743 20.0133 10.1505C20.1471 10.2267 20.2646 10.3286 20.3588 10.4504C20.4531 10.5722 20.5223 10.7115 20.5624 10.8601C20.6026 11.0088 20.6129 11.164 20.5928 11.3167L19.8182 17.5362C19.7961 17.7124 19.8146 17.8914 19.8723 18.0594C19.9299 18.2274 20.0251 18.38 20.1507 18.5057L31.8418 30.1922C32.005 30.3553 32.2128 30.4664 32.4391 30.5113C32.6654 30.5563 32.8999 30.5332 33.1131 30.445C33.3262 30.3567 33.5084 30.2072 33.6366 30.0154C33.7648 29.8236 33.8333 29.598 33.8333 29.3673V12.8333C33.8333 12.6557 33.7927 12.4805 33.7146 12.321C33.6366 12.1615 33.5232 12.0219 33.383 11.9128L28.4387 8.06283C28.1938 7.87347 28.0341 7.59457 27.9948 7.2875C27.9556 6.98042 28.0399 6.67032 28.2292 6.42542C28.4186 6.18051 28.6975 6.02086 29.0046 5.98159C29.3117 5.94231 29.6218 6.02664 29.8667 6.216L31.9445 7.83767C32.1167 7.97341 32.3237 8.05787 32.5418 8.08134C32.7598 8.10482 32.9801 8.06636 33.1772 7.97039C33.3744 7.87442 33.5406 7.72481 33.6566 7.53873C33.7727 7.35265 33.8339 7.13763 33.8333 6.91833V3.5C33.8333 3.19058 33.9562 2.89383 34.175 2.67504C34.3938 2.45625 34.6906 2.33333 35 2.33333C35.3094 2.33333 35.6062 2.45625 35.825 2.67504C36.0438 2.89383 36.1667 3.19058 36.1667 3.5V6.91833C36.1668 7.13682 36.2282 7.35088 36.3441 7.53614C36.4599 7.7214 36.6254 7.87042 36.8217 7.96623C37.0181 8.06204 37.2374 8.10078 37.4547 8.07805C37.672 8.05532 37.8786 7.97203 38.0508 7.83767L40.1228 6.22067C40.2438 6.12606 40.3822 6.0562 40.5302 6.01509C40.6781 5.97397 40.8327 5.9624 40.9851 5.98103C41.1376 5.99967 41.2848 6.04814 41.4185 6.12369C41.5522 6.19923 41.6697 6.30037 41.7643 6.42133C41.8589 6.54229 41.9288 6.6807 41.9699 6.82865C42.011 6.97661 42.0226 7.13122 42.004 7.28364C41.9853 7.43607 41.9369 7.58333 41.8613 7.71703C41.7858 7.85072 41.6846 7.96823 41.5637 8.06283L36.617 11.9128C36.4768 12.0219 36.3634 12.1615 36.2854 12.321C36.2073 12.4805 36.1667 12.6557 36.1667 12.8333V29.3673C36.1667 29.598 36.2352 29.8236 36.3634 30.0154C36.4916 30.2072 36.6738 30.3567 36.8869 30.445C37.1001 30.5332 37.3346 30.5563 37.5609 30.5113C37.7871 30.4664 37.995 30.3553 38.1582 30.1922L49.8493 18.4998C49.9749 18.3742 50.0701 18.2216 50.1277 18.0536C50.1854 17.8855 50.2039 17.7066 50.1818 17.5303L49.4072 11.3167C49.3879 11.1637 49.3991 11.0085 49.4401 10.8599C49.4812 10.7113 49.5513 10.5723 49.6463 10.451C49.7398 10.3298 49.8564 10.2285 49.9894 10.1528C50.1224 10.077 50.2691 10.0285 50.421 10.01C50.7281 9.97449 51.0369 10.0607 51.2812 10.2503C51.5255 10.4398 51.6858 10.7175 51.7277 11.0238L52.0485 13.6395C52.0753 13.8565 52.1625 14.0615 52.3002 14.2313C52.4379 14.4011 52.6206 14.5287 52.8273 14.5998C53.0341 14.6708 53.2566 14.6823 53.4696 14.633C53.6825 14.5837 53.8774 14.4755 54.0318 14.3208L56.4503 11.9C56.6728 11.6888 56.9678 11.571 57.2746 11.571C57.5813 11.571 57.8764 11.6888 58.0988 11.9C58.3172 12.1187 58.4398 12.4152 58.4398 12.7242C58.4398 13.0333 58.3172 13.3298 58.0988 13.5485L55.6827 15.967C55.528 16.1215 55.4198 16.3163 55.3705 16.5293C55.3212 16.7422 55.3327 16.9648 55.4037 17.1715C55.4748 17.3783 55.6024 17.5609 55.7722 17.6986C55.942 17.8363 56.147 17.9235 56.364 17.9503L58.9715 18.27C59.2796 18.3102 59.5596 18.4701 59.7508 18.715C59.942 18.96 60.0292 19.2703 59.9935 19.579C59.975 19.7306 59.9265 19.8769 59.8507 20.0096C59.775 20.1422 59.6736 20.2584 59.5525 20.3513C59.4315 20.4463 59.293 20.5165 59.1448 20.5577C58.9967 20.5989 58.8418 20.6105 58.6892 20.5917L52.4697 19.817C52.2934 19.7956 52.1147 19.8144 51.9467 19.872C51.7788 19.9295 51.6261 20.0244 51.5002 20.1495L39.8078 31.8418C39.6447 32.005 39.5336 32.2128 39.4887 32.4391C39.4437 32.6654 39.4668 32.8999 39.555 33.1131C39.6433 33.3262 39.7928 33.5084 39.9846 33.6366C40.1764 33.7648 40.402 33.8333 40.6327 33.8333H57.1667C57.3443 33.8333 57.5195 33.7927 57.679 33.7146C57.8385 33.6366 57.9781 33.5232 58.0872 33.383L61.9372 28.4387C62.1265 28.1938 62.4054 28.0341 62.7125 27.9948C63.0196 27.9556 63.3297 28.0399 63.5746 28.2292C63.8195 28.4186 63.9791 28.6975 64.0184 29.0046C64.0577 29.3117 63.9734 29.6218 63.784 29.8667L62.1623 31.9445C62.0266 32.1167 61.9421 32.3237 61.9187 32.5418C61.8952 32.7598 61.9336 32.9801 62.0296 33.1772C62.1256 33.3744 62.2752 33.5406 62.4613 33.6566C62.6473 33.7727 62.8624 33.8339 63.0817 33.8333H66.5C66.8094 33.8333 67.1062 33.9562 67.325 34.175C67.5437 34.3938 67.6667 34.6906 67.6667 35C67.6667 35.3094 67.5437 35.6062 67.325 35.825C67.1062 36.0438 66.8094 36.1667 66.5 36.1667Z" fill="#004671"/>
</svg>
