<svg width="73" height="72" viewBox="0 0 73 72" fill="none" xmlns="http://www.w3.org/2000/svg">
<g id="Group">
<path id="Vector" d="M50.2997 50.2992C50.6569 50.3819 51.0323 50.3194 51.3434 50.1254C51.6546 49.9313 51.8759 49.6217 51.9587 49.2645C52.8387 45.4614 51.6714 42.95 50.2845 41.5271C50.167 39.379 48.8934 27.0166 35.1882 26.3397C30.0272 26.0855 26.365 24.7414 24.6023 22.451C24.3123 22.0669 23.9067 21.7861 23.4452 21.6498C22.9836 21.5136 22.4905 21.529 22.0384 21.694C21.5762 21.8563 21.1774 22.1611 20.8994 22.5645C20.6213 22.9679 20.4784 23.449 20.4912 23.9388C20.5672 26.9475 20.7951 36.0981 27.263 41.0685C30.2648 43.3768 34.2281 44.5317 39.1073 44.5317C41.8633 44.5317 44.9273 44.1435 48.2593 43.4045C49.0356 44.1491 49.9501 45.6935 49.2677 48.6401C49.1854 48.9971 49.2481 49.3722 49.4421 49.683C49.6361 49.9938 49.9455 50.2149 50.3024 50.2978L50.2997 50.2992ZM28.9442 38.8789C24.507 35.4668 23.5221 29.6551 23.2969 25.1296C25.7337 27.5015 29.6791 28.8359 35.0501 29.0998C43.416 29.5128 46.172 35.0441 47.0823 38.691C44.1164 36.7971 37.6333 33.3228 29.6031 33.0507C35.6759 35.7845 40.8673 38.3029 44.785 41.2702C37.8226 42.3988 32.4944 41.6072 28.9442 38.8789ZM72.7326 27.058L68.9696 3.71192C68.8301 2.6275 67.3782 2.15782 66.6295 2.9549L60.5402 9.04423C46.3778 -3.50327 24.4228 -2.96728 10.976 10.4795C4.00113 17.4544 0.242264 26.7873 0.392839 36.757C0.403891 37.427 0.892916 37.9948 1.55462 38.1012L9.46605 39.3735C10.3142 39.5337 11.15 38.7684 11.063 37.9078C10.7902 34.2468 11.3099 30.57 12.5867 27.1281C13.8636 23.6862 15.8675 20.56 18.4619 17.9627C27.7934 8.63118 43.0126 8.11038 53.0376 16.5468L47.0464 22.538C46.2479 23.2854 46.7204 24.74 47.8034 24.8781L71.1481 28.6412C72.0433 28.8097 72.9039 27.956 72.7326 27.058ZM50.9116 22.5808L56.0257 17.4668C56.1564 17.3361 56.2596 17.1805 56.3292 17.0092C56.3987 16.8379 56.4331 16.6543 56.4304 16.4695C56.4277 16.2846 56.3879 16.1022 56.3134 15.933C56.2389 15.7638 56.1312 15.6113 55.9967 15.4844C44.9356 5.06158 27.2229 5.2978 16.5086 16.0108C13.8394 18.6812 11.732 21.859 10.3106 25.3569C8.88916 28.8547 8.18256 32.6018 8.23244 36.3771L3.15707 35.5607C3.31318 26.7804 6.75707 18.6051 12.9293 12.4329C25.6412 -0.280403 46.5891 -0.495905 59.627 11.9549C59.8876 12.2045 60.2357 12.342 60.5965 12.3378C60.9573 12.3337 61.3021 12.1883 61.5569 11.9328L66.6723 6.81737L69.7004 25.6089L50.9116 22.5808ZM71.1468 33.7704L63.2906 32.4981C62.4369 32.3351 61.6066 33.1032 61.6923 33.9638C61.965 37.6245 61.4452 41.3011 60.1684 44.7427C58.8915 48.1844 56.8877 51.3103 54.2934 53.9075C46.4192 61.7816 34.4602 63.6368 24.5195 58.5173C22.7969 57.6482 21.184 56.5769 19.7149 55.3262L25.7075 49.3335C26.5073 48.5848 26.0307 47.1233 24.9422 46.992L1.60573 43.2304C0.700897 43.0577 -0.145917 43.917 0.0212355 44.8135L3.78286 68.1596C3.92239 69.2413 5.37979 69.7151 6.123 68.9153L12.2068 62.8329C13.8253 64.2732 15.5723 65.5624 17.4258 66.6843C23.0922 70.1577 29.6084 71.9974 36.2547 72C40.9976 71.9985 45.6935 71.0607 50.0731 69.2403C54.4528 67.4199 58.4299 64.7529 61.7765 61.392C68.7044 54.4642 72.542 44.8826 72.3058 35.1007C72.2977 34.7785 72.1774 34.4692 71.9655 34.2263C71.7536 33.9834 71.4649 33.8221 71.1468 33.7704ZM59.8246 59.4387C54.545 64.745 47.6292 68.1144 40.1966 69.0014C32.7639 69.8884 25.2494 68.2411 18.8694 64.3262C16.7033 63.0042 14.8274 61.5633 13.1379 59.9222C12.878 59.6688 12.5286 59.5283 12.1657 59.5312C11.8028 59.534 11.4556 59.68 11.1997 59.9374L6.08156 65.0542L3.05623 46.264L21.3146 49.2244L21.8326 49.3059L16.7324 54.4061C16.6017 54.5371 16.4986 54.6928 16.4292 54.8642C16.3598 55.0356 16.3254 55.2192 16.3281 55.4041C16.3308 55.5891 16.3705 55.7716 16.445 55.9409C16.5194 56.1102 16.627 56.2628 16.7614 56.3899C18.7755 58.2824 20.9706 59.8296 23.272 60.9804C34.2682 66.6456 47.523 64.5873 56.2495 55.8608C58.9184 53.1911 61.0257 50.0139 62.4471 46.5168C63.8685 43.0196 64.5752 39.2732 64.5256 35.4986L69.5554 36.3122C69.4477 44.9941 65.9577 53.2915 59.8274 59.4401L59.8246 59.4387Z" fill="#004671"/>
</g>
</svg>
