<svg width="75" height="75" viewBox="0 0 75 75" fill="none" xmlns="http://www.w3.org/2000/svg">
<g id="Group 3626">
<path id="Vector" d="M2 72.9971H72.9973" stroke="#004671" stroke-width="3" stroke-miterlimit="10" stroke-linecap="round" stroke-linejoin="round"/>
<path id="Vector_2" d="M13.9313 55.3214H8.03938C7.22586 55.3214 6.56641 55.9809 6.56641 56.7944V72.9971H15.4042V56.7944C15.4042 55.9809 14.7448 55.3214 13.9313 55.3214Z" stroke="#004671" stroke-width="3" stroke-miterlimit="10" stroke-linecap="round" stroke-linejoin="round"/>
<path id="Vector_3" d="M31.607 50.0187H25.7152C24.9016 50.0187 24.2422 50.6782 24.2422 51.4917V72.9971H33.08V51.4917C33.08 50.6782 32.4206 50.0187 31.607 50.0187Z" stroke="#004671" stroke-width="3" stroke-miterlimit="10" stroke-linecap="round" stroke-linejoin="round"/>
<path id="Vector_4" d="M49.2828 41.9174H43.3909C42.5774 41.9174 41.918 42.5768 41.918 43.3903V72.9971H50.7558V43.3903C50.7558 42.5768 50.0964 41.9174 49.2828 41.9174Z" stroke="#004671" stroke-width="3" stroke-miterlimit="10" stroke-linecap="round" stroke-linejoin="round"/>
<path id="Vector_5" d="M66.9586 27.1876H61.0667C60.2532 27.1876 59.5938 27.8471 59.5938 28.6606V72.9971H68.4316V28.6606C68.4316 27.8471 67.7721 27.1876 66.9586 27.1876Z" stroke="#004671" stroke-width="3" stroke-miterlimit="10" stroke-linecap="round" stroke-linejoin="round"/>
<path id="Vector_6" d="M2 45.0547C31.0206 45.0547 60.0413 22.8686 69.3791 1.99971" stroke="#004671" stroke-width="3" stroke-miterlimit="10" stroke-linecap="round" stroke-linejoin="round"/>
<path id="Vector_7" d="M55.875 5.61825L69.3777 2.00019L72.9958 15.5029" stroke="#004671" stroke-width="3" stroke-miterlimit="10" stroke-linecap="round" stroke-linejoin="round"/>
</g>
</svg>
